<?xml version="1.0" encoding="UTF-8" standalone="no"?>
<!-- Created with Inkscape (http://www.inkscape.org/) -->

<svg
   version="1.1"
   id="svg114765"
   width="3478.3477"
   height="648.3689"
   viewBox="0 0 3478.3478 648.36893"
   sodipodi:docname="bamboo-footer.svg"
   inkscape:version="1.1.2 (0a00cf5339, 2022-02-04)"
   xmlns:inkscape="http://www.inkscape.org/namespaces/inkscape"
   xmlns:sodipodi="http://sodipodi.sourceforge.net/DTD/sodipodi-0.dtd"
   xmlns="http://www.w3.org/2000/svg"
   xmlns:svg="http://www.w3.org/2000/svg">
  <defs
     id="defs114769" />
  <sodipodi:namedview
     id="namedview114767"
     pagecolor="#ffffff"
     bordercolor="#666666"
     borderopacity="1.0"
     inkscape:pageshadow="2"
     inkscape:pageopacity="0.0"
     inkscape:pagecheckerboard="0"
     showgrid="false"
     inkscape:zoom="0.26348041"
     inkscape:cx="1863.5162"
     inkscape:cy="100.57674"
     inkscape:window-width="1920"
     inkscape:window-height="1016"
     inkscape:window-x="0"
     inkscape:window-y="0"
     inkscape:window-maximized="1"
     inkscape:current-layer="g114771" />
  <g
     inkscape:groupmode="layer"
     inkscape:label="Image"
     id="g114771"
     transform="translate(159.76774,-355.90845)">
    <g
       id="g129159"
       transform="matrix(-1,0,0,1,3158.8122,8)">
      <path
         style="fill:#483737;fill-opacity:1;stroke-width:0.694103"
         d="m 74.244947,914.66768 c 7.342828,-9.25653 40.157093,-5.5668 43.791053,-22.30468 15.20332,-1.15131 39.51303,6.12604 33.78831,-13.88205 19.43827,2.15476 -1.56743,-37.98673 -5.7709,-56.661 -3.51305,-9.44024 -9.51515,6.53282 -10.83221,-1.69701 -4.65715,1.13338 15.48311,-10.19509 -0.14455,-17.27811 18.50342,19.31697 -12.00632,-32.50841 -15.2734,-42.33768 -10.11812,-18.31142 -13.2886,-0.93842 -9.41838,-22.87714 11.57172,15.30943 19.96864,35.13586 27.48182,47.68899 13.30558,23.62348 20.27735,50.90575 26.94487,76.954 16.00057,-1.90226 -6.84326,-47.05443 -1.31205,-63.93731 -11.47034,5.70897 8.81145,-23.15597 4.01596,-39.84823 -2.81866,-4.17408 -9.85709,-8.33543 4.03263,-10.34105 -6.13351,28.59683 -0.57752,7.0771 4.58462,-6.05661 20.12475,-1.75094 -2.53958,-31.78117 -5.94183,-38.05538 8.79743,11.33044 26.04503,48.62571 15.53796,13.71746 -3.97172,-30.24514 -2.80902,-30.34662 -12.23874,-58.23566 6.78945,-20.46426 -48.39526,-55.45868 -9.58943,-26.29201 14.35966,-0.25297 -18.71052,-62.71725 -13.51716,-52.55309 9.33884,18.33891 12.29475,19.98288 9.97011,0.38688 0.0581,20.35063 11.02331,38.32796 15.42748,56.70444 5.81229,14.90499 8.15243,39.12002 13.95948,47.34784 -8.54353,35.25351 48.02328,-19.63536 30.93375,16.82362 -15.42661,20.88786 -12.03866,10.36256 -3.47057,-7.2713 -38.9122,2.20265 -14.44678,27.82467 -15.30061,52.9833 -6.58149,14.33087 13.19773,26.81008 1.41738,25.68241 3.52473,12.83538 1.49687,38.91855 5.18189,39.7441 -1.94627,14.68116 -6.564,54.01293 0.88538,63.84821 10.70191,-12.81573 22.66165,-44.80414 26.44503,-8.20119 2.06324,20.39994 5.4512,-38.66147 0.82661,-35.70563 5.27628,-31.86421 -0.73722,-64.62173 -0.66631,-96.49115 -0.96225,-28.28341 -11.47503,-55.36734 -19.49397,-82.28895 -21.45023,17.66756 10.45413,-15.23855 -11.58972,-5.1491 -17.628,7.74624 20.40839,-11.1969 0.7446,-20.98701 4.65509,19.33387 19.15435,6.56159 13.91986,-3.65818 19.39336,-1.5647 -13.5006,-1.66963 -4.58726,-19.90441 -13.56382,-19.45665 16.39996,-20.05311 10.41706,0.50268 3.60004,-13.9122 -1.12742,-53.02474 9.17744,-27.91445 15.00946,13.54334 24.31405,30.06396 0.75162,9.18878 12.6289,28.62616 -0.0205,3.28326 -6.58402,7.97637 9.42362,18.53049 32.93361,46.40272 49.92805,58.92368 3.89348,-14.18157 -28.45106,-56.92333 -16.20771,-67.72349 19.19157,-11.70227 14.44697,50.9736 23.75769,15.6511 23.30309,6.49235 -14.71925,-5.16871 4.60569,-19.63627 -3.0618,-17.58959 7.17198,-38.05643 20.52007,-21.35943 -16.89368,27.1127 28.46735,-28.05353 31.7001,10.09009 7.31949,-13.40288 14.05842,-22.97093 14.2555,-0.96885 10.87196,11.72296 10.02183,-31.66125 28.25372,-18.5798 -10.68043,-14.88022 -20.37279,-30.43734 -3.56671,-38.51709 -12.94567,-34.01195 -22.2185,45.77734 -30.11363,39.68066 4.74327,-16.72573 14.54843,-37.91863 -9.06172,-16.33026 16.69996,-16.99561 8.41068,-16.40168 -8.03465,-7.02494 19.01741,-5.81664 32.81335,-30.21797 18.31139,-37.38413 6.22506,37.31384 -5.54041,-29.31703 -18.89988,2.07866 -21.55532,16.53097 19.16392,-22.44319 -7.91561,-5.21422 -1.29117,11.14085 -9.88587,41.44923 -16.15779,19.55376 4.54216,-16.73504 1.81747,-30.67114 22.07429,-27.61946 21.81872,-5.76475 -9.42756,-31.46937 -3.95718,-2.09815 -18.10398,15.51067 -0.47277,-29.6662 -1.36121,-23.10052 0.3245,-6.95504 15.31982,-34.52966 -13.504,-30.49258 -20.31562,-5.31474 30.91094,11.56624 17.85223,-10.43787 4.43434,-24.23197 -9.27517,-13.8722 -19.30937,-4.43065 17.54416,-17.83975 -8.93925,-6.00701 -6.33897,-9.40393 29.91912,-26.42267 -15.56245,-4.41202 -7.05542,-9.21206 19.40861,-12.73122 6.05131,-11.79616 -7.55899,-6.70364 9.21614,-17.98636 69.0608,-13.5269 56.81495,-6.99275 -18.18835,-1.23323 -26.32298,-0.0802 -7.05361,11.97323 11.21149,29.76877 26.65961,-13.60782 22.37066,-8.77149 17.6468,-14.57586 17.82467,-19.9751 -3.12768,-17.85112 -25.84162,-2.55185 27.76966,-10.32171 37.36148,-4.15282 16.44056,6.971 29.99296,16.37831 3.43306,7.11017 -6.57617,2.07694 26.4616,22.21173 1.80885,9.47442 -16.43336,-16.70852 -18.23365,36.23822 -16.16397,-1.45022 -2.2457,-9.74373 -16.95284,30.0667 -9.11401,1.43553 -22.42713,2.80726 -37.15901,59.85177 -12.33367,26.26286 13.99747,-15.84915 53.33475,21.67246 20.76251,13.07142 13.99322,12.35851 -23.19665,-12.28727 -13.06628,15.21084 -4.62942,13.26436 20.44688,14.98557 -0.6941,13.8428 2.66417,22.2466 8.66704,22.00814 10.2447,45.59408 -13.69459,7.44736 -4.50694,-34.76188 -17.10977,-10.47408 -1.00271,29.8435 -5.21935,-24.59351 -7.13959,6.40884 15.177,26.75622 0.26188,5.40691 0.18468,12.31699 0.32528,33.0886 17.51042,6.83633 20.06687,-6.1579 15.8678,-8.65972 50.76299,-1.92503 53.19709,12.44691 -19.29369,-9.98982 -27.64058,-13.35002 -16.84825,10.23028 3.52116,11.98661 -20.49586,-37.43209 -23.77244,-4.092 0.84533,17.27819 1.98662,8.54236 14.27814,26.09378 -9.14615,-3.77235 0.53844,29.64862 -7.9013,24.77779 19.02592,-11.09955 4.60842,30.94138 25.81638,6.63311 20.7583,0.92369 29.74546,12.1574 44.87462,-6.97199 10.83627,4.88252 13.74935,29.46256 15.36461,3.95587 18.50073,1.41944 33.28354,55.41459 47.15902,43.06751 2.69433,-13.71671 4.25324,-32.54982 2.6567,-6.94054 11.14243,-22.98371 -7.64077,-37.02411 -26.70473,-18.0505 18.10938,-12.53675 12.91941,-16.13502 -6.17516,-8.5527 15.7473,-10.12459 41.88653,-10.72164 23.26112,-34.73555 -14.12121,-12.58245 2.15692,-52.12892 -17.0844,-20.949 -3.83239,19.19589 -22.07212,36.37132 -7.14016,8.60464 19.0786,-25.3384 -31.5463,10.3963 -2.69715,-13.12024 3.75879,-7.04706 -32.38226,8.88447 -9.46205,-3.247 15.33145,0.32836 26.37317,-17.61135 16.68668,-22.8433 1.1753,25.87931 -6.31639,-20.19584 -11.86344,7.37287 3.51992,-16.71231 10.7008,-30.08624 -9.85252,-13.37195 -16.9531,8.17299 24.49958,-21.0856 -9.92005,-6.22255 -6.64592,2.14413 34.03119,-22.01688 5.78183,-8.85599 -24.05477,12.96233 24.14289,-20.31567 -8.63769,-6.32852 -17.07218,2.98901 36.43093,-24.41821 28.91487,5.04284 23.52951,13.02236 -0.39421,-18.27269 -9.57017,-24.07653 -12.84369,-6.00367 -59.96313,-13.30904 -21.46748,-7.78981 12.25988,3.89698 21.07936,5.40595 6.12265,-4.95686 16.52618,9.59398 48.20748,48.88195 25.37061,7.12256 -7.72021,-9.54249 -23.75316,-45.27059 -5.68039,-13.52331 8.40501,-16.88542 33.57411,-25.85712 44.6404,-0.005 -19.45693,-15.64758 -16.22641,-3.2599 -7.71449,7.05167 -26.17621,-36.37093 -22.07179,26.91184 -13.69334,41.6692 -1.94031,-4.39911 5.21308,34.20266 18.46276,14.20829 -1.10511,1.8274 -18.12966,15.40178 0.88974,3.55882 19.41466,-22.93826 65.4042,37.93964 27.97066,8.54089 -14.48852,-14.4321 5.33952,44.95322 -9.29742,8.68965 -0.57513,-25.54727 -41.26289,14.37659 -13.82646,-11.64975 2.20079,-7.87322 -26.79685,5.1054 -10.80417,19.37492 3.11464,5.97976 29.67462,29.20724 7.39128,15.61456 -2.6222,13.28915 11.63465,35.92297 -0.47623,38.80795 14.87854,-4.5506 8.83727,11.08636 28.07608,-0.21893 19.91614,14.21206 39.39898,6.27714 54.3606,20.40969 6.06479,-17.15252 9.17564,-30.10934 13.70373,-45.81047 18.61166,-27.6905 -41.87719,23.91627 -10.17523,-7.65924 6.44427,-10.33822 24.94634,-22.45881 -2.84092,-12.14234 20.44415,-5.49532 -17.7522,-28.9296 -15.87415,-0.69426 -11.47864,26.48577 10.99626,-41.01904 -15.64834,-7.71438 -20.00802,11.10126 22.20808,-35.48138 36.17069,-14.08428 26.32804,16.48449 -13.52069,-15.00481 9.4297,2.50405 22.18937,28.54101 4.95049,-43.11428 8.69959,-2.19681 -4.37335,7.54387 -1.66307,-39.54621 -19.65174,-12.42761 -24.83705,13.23035 23.79294,-20.48048 -9.57467,-6.10185 -12.29064,-0.51212 41.27098,-24.08669 36.61561,7.43434 0.48687,-19.43388 42.40935,-9.91424 38.37594,-2.17817 -34.3175,-8.89579 3.05305,8.71189 15.14137,9.00687 11.68566,9.92521 24.38635,26.74683 1.88222,9.82435 -19.85764,-21.77952 4.2441,46.55656 -12.37693,5.8864 -3.30686,-22.32305 -41.39042,15.54582 -10.8477,-13.02411 -18.81806,-1.53569 -40.82299,19.42886 -10.78162,22.16776 16.87708,8.07135 -8.27481,2.1722 12.96557,17.44945 2.18618,5.87547 -33.07391,-20.05572 -18.13908,7.42006 4.1146,35.87803 -20.27859,-57.80999 -22.70493,-9.10794 -18.74509,20.66337 -11.67666,52.98065 15.75363,33.60869 8.11908,1.15073 5.73054,-28.00051 12.75303,-6.80114 0.60567,34.53386 24.03837,2.1197 44.95598,15.5218 9.4079,8.08947 29.54997,29.65758 4.99436,12.09864 -22.45303,-26.0649 2.5375,45.88664 -14.67882,3.26713 -17.19457,-20.49109 -8.16136,9.21272 5.50759,17.45506 -13.54046,-13.52771 -20.13848,-12.68879 -8.8075,5.54987 -19.63764,-26.75395 -13.68341,6.24666 5.29714,11.89808 5.19805,7.404 3.63053,7.60459 -6.94556,4.95455 0.0119,14.19186 -0.50739,3.45094 -10.80106,-1.95343 9.57273,9.09145 2.1947,41.91614 10.59304,38.80785 -10.75456,19.18118 38.60297,29.82453 3.45466,22.43891 0.099,20.32619 2.56855,31.97706 6.57165,57.70354 -4.9936,8.29887 4.99673,41.68505 0.34073,61.13412 8.82857,15.76562 -16.12044,68.8829 14.26267,53.42046 17.4201,-12.64315 25.97961,0.28911 20.94008,18.03176 7.19399,-8.17939 8.72637,14.70117 14.30941,-6.05574 1.94018,-34.28209 12.87513,-0.99786 11.33483,11.61262 9.33089,-30.18375 2.43881,-77.97339 4.48161,-98.72551 7.74846,32.82287 5.35517,66.55773 0.29816,99.4868 27.81687,-2.451 12.11783,-55.40112 19.47026,-70.65563 2.1844,-22.30023 -10.45764,-60.43815 -3.79177,-73.58571 11.24153,7.4993 -7.11597,3.33927 3.02627,22.6642 -1.28343,17.79706 16.28994,31.80435 4.64158,26.98155 1.31889,29.91432 -0.29327,61.88477 -5.68306,92.15267 18.532,-17.47519 9.75138,-53.97096 19.95558,-78.49127 8.87697,-27.37653 19.19247,-54.20577 33.43027,-79.3052 3.36906,17.1991 4.57201,14.60988 -3.99761,14.18624 -5.05038,16.14339 -25.64015,63.13164 -18.82948,59.38261 13.53494,-18.37958 -13.62978,13.43041 9.81139,12.76144 -11.46837,-5.494 -1.01098,9.32388 -13.2,-4.3269 -2.79043,14.05183 -10.91448,37.65968 -10.88505,57.34606 -12.71263,32.19976 13.3036,27.73398 35.2636,29.07161 6.74775,17.82075 60.08178,7.55777 44.61422,16.99572 -195.47902,0.88179 -391.23558,0.51006 -586.45542,-0.3951 -37.05432,0.8345 -76.8555,2.1604 -113.9511,-0.56047 -25.84094,-2.7927 -55.57718,2.9233 -82.95302,1.075 -11.365518,-0.0525 -22.743976,0.19046 -34.102523,-0.28697 z M 466.70131,891.6828 c 1.33294,-23.60406 34.86142,-0.0995 23.94761,-25.87171 2.26655,-25.39794 -3.02493,-51.07696 1.15057,-75.03279 -0.53701,-23.89904 2.53889,-47.764 6.28868,-71.66447 2.62818,-13.32684 7.34838,-32.89535 11.48685,-45.46162 0.22505,-17.71748 23.9306,-44.83493 -6.71373,-52.08158 -5.10621,-1.82179 14.00735,37.93375 1.22185,17.44493 -1.84585,15.90853 -4.66032,-4.57823 -12.57926,-16.45163 -26.05313,8.37822 -18.69446,52.46546 -24.16255,66.77407 5.19747,-17.85513 15.1221,-48.12136 21.71009,-56.70783 -12.50739,32.33701 -25.8583,66.27152 -26.27435,101.25361 1.09474,20.04992 -24.894,2.03278 -11.43128,-12.18745 11.77217,-34.34114 -36.34101,-28.21623 -23.02373,3.34167 -1.74793,10.90512 10.39421,28.80556 -10.2371,26.20443 26.70178,-7.25853 4.68936,38.8269 11.49331,48.95801 2.19512,19.47283 0.15392,55.61817 -11.69912,49.48844 26.28509,-5.89719 -2.87098,40.86535 15.17098,28.11722 15.32718,-9.39417 15.62317,-60.40787 13.43379,-87.61355 7.24627,-10.29499 -11.93558,-53.69998 15.25228,-47.06161 0.38977,23.41627 -4.25741,53.81036 0.0182,79.35436 -4.43692,17.03612 1.76631,49.21855 0.89407,72.12951 l 1.82838,-0.33097 2.22429,-2.60105 z M 486.874,708.99485 c -18.04133,-10.37468 -17.01471,-35.34983 5.53838,-19.09734 27.16172,16.59619 -28.12364,-11.70352 -7.01998,12.47217 -1.5172,-2.67254 6.25139,14.08118 1.4816,6.62517 z m 3.78103,-80.14247 c 1.49647,-3.93655 2.73806,-2.59547 0,0 z M 274.508,889.41307 c -9.09259,-16.4981 -1.71824,-35.46249 15.23574,-24.54382 -0.51108,16.26523 21.19609,10.60511 21.96543,7.38828 18.74202,19.4427 2.74506,-14.66989 27.42423,-4.6928 -9.36783,23.61256 35.64689,18.36613 18.60433,-3.49692 -1.60419,-19.58394 -17.95841,-54.68273 -6.14349,-65.56204 -8.33752,2.57833 -15.82711,-48.38672 -2.10725,-41.86642 -18.33407,3.01096 -10.45585,-62.64543 -27.49533,-22.00031 -4.11282,11.18765 -2.89559,-19.27581 -4.94093,2.63361 6.34636,29.02967 7.45445,33.19603 10.66639,63.54056 4.96426,18.46402 3.34305,36.79668 11.48731,60.91185 -28.22131,23.25854 -13.13529,-27.93815 -25.03315,-41.54871 23.24539,1.12858 -9.06355,-2.60869 -4.8895,-21.06406 -6.60844,-17.99955 -18.35286,-32.00849 -19.85239,-4.23108 3.20915,19.79675 -21.24272,13.45913 -0.35496,18.06277 -8.94088,16.06429 12.38239,63.69212 -19.5213,45.18757 5.13156,-27.26633 0.0146,-45.83441 2.42925,-64.6782 -3.91874,-23.11369 5.23694,-47.14925 -11.23185,-47.56282 -9.69609,34.89603 -7.4456,-28.30992 11.50812,-17.93188 -9.82368,-17.4967 7.67824,-31.97052 18.105,-16.68967 -6.01239,13.60802 -6.67051,59.78515 6.16415,55.42132 12.72642,-14.42483 5.66582,-51.46958 3.62298,-44.74578 -8.66637,-6.30121 -4.76422,-46.62943 -11.49613,-16.55724 -25.38586,7.00275 -6.10662,-26.16006 -28.3771,-4.05415 -0.25499,-2.13695 25.51842,-28.63084 -1.81211,-12.33934 -22.93746,6.4034 44.29286,-19.78141 9.80173,-36.89248 -15.25018,-12.96986 -36.93799,-26.52591 -35.75221,-28.83079 -6.62992,17.64983 49.99197,36.80495 12.18852,25.08852 -16.79619,-9.51252 4.25715,31.32774 -0.15236,44.99728 0.4843,13.57157 8.19768,37.38547 3.51492,55.12346 5.87608,1.63653 2.10286,36.1636 4.68134,45.10001 -1.76003,26.65793 0.0567,50.13426 -1.50345,76.78777 -2.85435,20.08032 8.86592,23.9256 23.26407,19.04551 z m -37.75569,-1.35351 c -2.63897,-1.39118 1.09364,5.26062 0,0 z m 266.5031,-8.81804 c -2.65877,-12.18637 -0.52734,12.76195 0,0 z m 100.68722,2.634 c 26.32564,-18.31186 23.63149,-54.19891 26.91243,-81.95533 -0.25377,-23.83686 1.41851,-47.33309 6.06029,-70.63957 -5.5656,-18.7059 7.87635,-14.56641 0.8396,-26.24175 -20.35098,-9.35126 -19.75923,-2.54429 -9.84266,15.51016 -23.09811,-27.35352 -31.42656,17.00578 -26.64285,36.97025 -5.87851,24.0353 3.47142,57.6784 -4.76429,76.62102 9.28067,5.71798 -2.2287,46.9892 7.43748,49.73522 z m 29.39511,-172.55213 c -0.86843,-3.03793 2.41031,3.24502 0,0 z M 236.93089,880.61122 c -0.2534,-3.41857 -2.21247,2.30918 0,0 z m 143.70888,-1.68108 c 27.00096,-17.19191 12.97292,-49.288 11.00178,-74.15749 -4.27857,-20.80423 -3.14344,-46.85525 -7.73181,-44.63619 3.83493,-19.40863 2.23676,-46.19578 -2.7,-32.03326 -8.49885,-23.3056 -7.96617,-6.11766 -16.56349,3.57506 10.61571,-16.81768 -25.29896,-44.30741 10.07213,-33.2299 18.98825,13.72994 15.82409,-22.63785 12.86326,-28.6234 -30.42707,16.69373 28.02543,-24.10062 -11.56092,-7.50455 -15.36863,2.4918 29.10476,-11.06859 19.53158,-28.60779 -0.48279,-18.92832 -37.20876,-28.55649 -9.69855,-6.30783 -12.51335,-5.23603 -32.91764,-20.60467 -9.31053,-0.88307 -20.89475,-14.66473 -8.6672,28.39628 -18.79985,42.26657 -6.96191,33.58568 -6.80586,67.25776 -2.53128,100.78215 4.49379,20.24247 5.81232,57.87785 11.5514,68.27798 1.90872,10.60537 -0.79195,43.80947 13.87628,41.08172 z m -5.3798,-227.92821 c -12.25234,-20.08698 8.75767,-17.85097 8.95514,1.1911 -17.33312,-30.81858 0.56919,18.21124 -8.95514,-1.1911 z m 322.49632,227.82954 c 3.96894,-30.15023 1.70565,-39.73469 2.61877,-64.35634 -2.91266,-22.22787 0.8929,-44.62801 -3.59237,-66.65802 5.02522,-19.74742 -5.83944,-61.20652 -24.83027,-26.38064 12.78728,-19.37546 -1.35383,-17.13399 -13.93919,-13.51177 12.09764,-23.16351 43.94067,4.43023 27.14954,-25.2081 -3.96154,-14.86175 -10.7014,-34.47745 -10.77327,-18.21001 -0.77388,-18.45343 -9.84843,-31.10307 -13.09003,-3.72838 -8.36309,21.45504 -7.26149,39.84863 -2.67146,60.71714 8.20531,17.99581 7.04499,43.45327 9.64729,64.27955 2.4358,20.21427 -4.78852,41.87487 13.1329,55.99923 19.05738,10.17896 -8.82661,49.04268 16.34809,37.05734 z M 658.72406,714.32569 c 4.79052,-14.73352 4.89945,1.04222 0,0 z M 192.22204,872.17965 c -7.24608,-27.19472 -9.55712,-58.02852 -3.85714,-84.51891 0.39788,20.98048 0.37046,64.37617 6.95543,73.1206 -3.15344,-23.22293 0.72588,-49.36189 -1.40903,-65.5927 -4.09818,-22.12952 2.87038,-27.87789 -6.4808,-51.61362 -8.92885,4.85274 5.78037,30.34239 -9.71166,32.78558 -6.80188,3.61318 8.96558,-28.72845 -5.71205,-13.46331 -6.93437,14.6516 -1.3571,56.00975 -0.45092,53.98205 1.74947,20.87455 -1.25148,54.23433 21.90378,61.65253 l -1.23767,-6.35223 z m -15.50868,-45.45781 c -6.29675,-9.8652 7.86862,-5.64088 1.04174,-1.51329 l 2.50352,3.97388 -3.54526,-2.46062 z m 0.88032,-27.08544 c 1.27772,-9.09458 7.23606,6.60891 0,0 z m 10.56794,-15.90045 c 0.75648,-3.29636 0.40718,4.1809 0,0 z m 397.85728,94.45218 c 5.58471,-10.61129 -3.1112,-38.79196 1.04532,-56.94873 -1.03188,-26.86108 -0.28212,-33.4766 0.68917,-60.0023 2.87107,-14.18184 -2.80531,-41.47603 7.29942,-53.45256 -1.61926,-15.66445 -16.0233,-5.86739 -14.71429,-8.75038 24.82329,0.99578 7.76819,-42.57282 25.44852,-31.51475 -20.73887,0.60977 14.82629,-55.89737 -5.66734,-33.32163 4.09145,9.84338 -7.67135,1.13367 -10.23823,4.18304 -12.03032,3.57152 31.31179,-25.22837 2.43764,-9.26516 -16.97142,5.68477 25.05012,-16.17251 16.28702,-30.3823 -6.26584,5.29061 -18.93152,22.18012 -7.33929,0.66974 -1.90502,-16.04805 -23.24898,35.43613 -15.27743,2.60473 11.36783,-28.55599 -12.16922,-3.29329 -11.69224,-0.76866 -14.15798,-0.87072 -3.65216,1.18076 -4.82623,-10.87639 -7.15165,-26.77875 -30.15664,3.00651 -15.63754,17.05756 -21.95026,7.29143 16.53006,-4.40319 4.43123,16.74521 23.3301,-5.41396 10.43693,5.92672 2.11235,2.81131 -4.11964,-3.04664 9.17922,41.84289 -10.45595,32.69393 28.29569,-10.03913 0.5617,30.29308 29.40557,27.53898 -0.66589,-0.95354 -27.0771,-3.88681 -11.01803,15.38691 -12.35164,15.92969 -23.04533,-8.06022 -29.76845,-7.00993 18.54091,0.71638 14.80753,-9.90057 7.56136,-16.94027 -1.42343,-9.46057 -10.85752,15.92068 -4.07373,-6.49898 14.09894,-19.42238 -20.36568,7.5528 -26.03799,12.14267 -12.54174,15.12292 -1.44819,37.39923 9.0853,14.76532 -20.49172,10.93555 30.18336,37.6576 0.75192,21.81942 -12.84209,-3.9663 17.89334,33.73966 19.41551,46.80573 5.4769,16.43864 11.16047,33.73537 9.22388,5.36861 -1.09635,-18.24941 2.13081,-36.3966 -4.1185,-61.18327 26.10114,-17.72086 14.7158,26.59342 19.85896,42.69758 -20.48932,3.64876 10.97217,1.84489 -1.58221,20.34607 0.59041,28.79642 -2.3738,45.29437 1.15812,76.52727 -28.1537,21.14151 -14.31287,-33.09886 -15.69692,-44.06577 24.81468,0.61133 -12.53244,2.05774 -2.63225,-16.20875 -4.28219,-17.15579 -15.57707,-53.1215 -18.59573,-15.868 -2.67768,2.15362 0.7397,-33.05774 -9.72316,-3.00758 6.85669,-4.64909 -11.09085,-48.6282 -7.21289,-11.79843 -9.21904,0.32212 -4.77793,-49.12602 6.40679,-17.4303 6.83242,34.22687 13.02475,-25.27213 0.63823,-8.11738 0.69048,12.15478 -13.82172,-31.67997 -16.2398,-0.33967 -4.99475,33.66055 -7.40991,68.07266 -4.74329,102.13138 -14.40043,34.79924 24.41986,42.64742 50.20965,39.5816 -11.466,-17.16608 13.61167,-29.37134 16.31547,-12.85277 -9.42372,18.59993 7.17386,11.59857 17.51006,14.7269 z M 413.17583,866.59444 c 2.97237,-19.34685 -6.83788,-58.6906 6.53107,-66.10657 10.68508,2.30505 -15.34641,-3.29625 -7.14117,-15.86493 -2.81043,-12.1962 -17.23251,-57.24682 -15.39395,-19.33415 3.09213,34.11897 9.18963,67.71972 14.08117,101.56594 l 0.95228,1.82617 0.97061,-2.08646 z m 246.00467,-4.41062 c -1.18416,-33.72604 0.77551,-68.3984 -3.8053,-101.39488 -0.5459,20.31617 -6.33864,-21.98258 -8.58162,6.59555 -4.24509,17.73906 -2.93142,-31.89074 -4.57514,3.82818 -4.23407,32.34397 -0.84423,63.47511 2.65977,95.26475 0.80819,2.21749 18.7633,4.03408 14.30229,-4.2936 z M 244.06063,837.80365 c -2.7484,-1.45862 -0.64872,1.56404 0,0 z m 212.40985,-11.85886 c -5.37614,-1.08018 -1.03219,1.11645 0,0 z m -142.44649,-25.7239 c -3.09901,-14.92105 -11.29797,-66.61477 -17.18951,-25.87158 4.70871,3.68689 18.06895,37.06465 17.18951,25.87158 z m 396.83508,-4.79784 c -3.82231,-1.12659 -0.6937,1.21485 0,0 z m -422.87976,-4.75407 c 0.43899,-40.80039 -5.67483,12.21558 0,0 z m -38.69845,2.67176 c -3.82231,-1.12659 -0.6937,1.21485 0,0 z m 166.09982,-23.04481 c -4.24931,-33.9382 -9.47173,-6.34295 -7.54014,-6.413 2.57038,11.8763 10.36078,28.29817 7.54014,6.413 z m 40.05819,13.99257 c -7.78588,-1.09873 -1.42298,1.09067 0,0 z m -161.93588,-9.87265 c 1.20406,-8.61811 -3.81167,3.40232 0,0 z m 22.42126,-4.0094 c -7.78587,-1.09873 -1.42299,1.09067 0,0 z m -32.80589,-11.9048 c -6.99962,-1.81098 -9.03153,2.14016 0,0 z m -104.4073,-5.54856 c -3.48876,-0.007 3.52179,9.62841 0,0 z m 223.02443,-4.99321 c -5.10965,-26.04024 20.03392,11.1647 13.14873,-17.74568 -9.15037,-16.51913 4.6911,-35.11356 3.93119,-29.18162 -17.38282,3.21713 -1.26701,-37.76829 -11.72778,-29.69678 -1.21255,-8.17998 -11.39022,13.87608 -2.9347,-9.10816 -0.23498,-15.20629 -10.74641,29.03872 -7.67619,39.71537 1.67496,13.72535 -3.91566,52.02591 5.86899,16.51612 11.09906,-30.0772 -15.33079,45.96662 -0.61024,29.50075 z m 5.64849,-40.57521 c 0.56545,-3.87721 2.43235,-0.94367 0,0 z m 242.77221,34.56491 c 0.11644,-16.76323 -8.87725,8.96596 0,0 z m -460.42798,-0.96545 c -4.25577,-6.63633 1.88249,7.31977 0,0 z m 82.28451,-1.62397 c -4.61006,-7.67465 -1.61365,4.89464 0,0 z m 380.74427,-5.56814 c -5.32168,-15.75373 -0.19503,16.55132 0,0 z m -5.23478,-0.41445 c -2.33872,-5.81182 -3.30858,10.45963 0,0 z m -308.09592,-2.04636 c -2.22081,-10.69286 1.19066,15.62737 0,0 z m 310.1538,-1.34258 c 5.05871,-22.27618 -8.67828,6.08181 0,0 z m -328.9326,-9.41191 c 4.74314,-18.53943 -13.03489,16.88115 0,0 z m 67.45388,-3.48443 c -14.5953,-16.2252 -0.0524,7.89167 0,0 z m -46.73623,-1.97486 c -8.8497,-2.54334 -2.02025,1.36967 0,0 z m -17.98883,-7.29435 c 27.54331,16.62298 5.5486,-28.1793 17.00547,-33.64223 -4.79111,1.76941 6.19264,-56.76387 -9.03353,-27.65605 8.86269,-22.37046 0.1073,-15.40131 -9.77527,-3.52973 4.48529,-16.09068 31.32986,-37.80004 1.4669,-17.72567 -14.2434,9.47773 6.38131,-12.04454 5.92947,-13.37396 3.13074,-16.96759 -56.01302,47.55183 -16.35167,41.61251 17.20566,7.87085 30.67332,17.66911 3.65439,8.07755 -23.81393,-7.31593 34.75144,29.97054 -2.23031,10.28857 -25.14406,-18.37432 -3.92318,30.76236 0.32238,42.91855 2.92768,-2.42044 5.7632,-4.95828 9.01217,-6.96954 z m 64.55154,-1.86759 c -10.74978,-9.74961 -3.6602,5.716 0,0 z m -145.25542,-0.0313 c -2.74842,-1.45862 -0.64872,1.56403 0,0 z m 127.06993,-0.41361 c 3.90336,-8.13768 -18.56099,-2.99741 0,0 z m 243.31925,-0.22524 c 0.75963,-3.65314 -1.85427,-24.18485 16.60072,-9.37992 27.95469,21.96786 7.18153,-38.74781 1.08298,-48.67745 -9.34102,-11.7912 -1.02167,42.69313 -7.35659,9.83425 -2.93105,8.85473 -24.79132,47.18918 -10.32711,48.22312 z m -261.9212,-2.25954 c -1.48223,-27.46626 24.38344,-69.12746 1.4574,-85.18816 8.92426,20.4773 -18.08488,15.96133 0.62491,20.59782 -3.08447,20.43023 -3.30573,46.18829 -2.08231,64.59034 z m 105.64869,-2.22431 c -10.5397,-6.0601 7.25253,-27.96805 -17.07239,-15.6316 -21.34195,-6.24233 33.54429,-0.48716 16.75791,-20.66008 -0.13158,-11.76064 17.55609,2.7092 2.38958,-10.15898 10.36622,-15.69775 6.53197,-36.38045 -2.03653,-23.75271 19.83694,-34.89645 -14.71189,5.33504 -8.22092,-6.37839 10.60055,-6.55845 33.21159,-44.46655 11.49319,-22.73807 -9.4566,9.5341 13.59432,-27.30634 -6.79479,-6.13021 -14.38659,11.01255 10.95319,-13.01186 2.07626,-12.47305 -13.08501,-1.6966 -22.45359,-15.93343 -13.66705,8.31922 5.1247,22.71913 -14.17592,-34.60292 -27.21619,-3.98594 9.55618,12.86494 -24.24372,20.97172 -0.12919,15.43495 1.50269,6.78061 13.37104,43.88963 12.94919,37.71813 3.78265,-0.0933 -8.56462,12.82958 -2.95889,11.33674 -0.53895,22.43588 -2.51528,47.68901 26.97001,47.34411 0.0577,2.02033 9.86477,3.01498 5.45981,1.75588 z m -30.42531,-66.48656 c -9.51362,-14.67054 9.98105,2.12937 0,0 z m 6.02379,-6.613 c 0.11973,-5.19377 -6.7043,-3.75599 7.44144,-9.72082 11.87868,11.64591 -0.62732,-0.17323 -7.44144,9.72082 z m 261.12594,70.48588 c -4.30618,-14.98764 -0.68901,10.72441 0,0 z M 230.40158,681.4158 c -2.44544,-10.47093 -8.97757,-49.87926 -9.62744,-19.94832 3.9856,7.79358 14.43852,54.16804 9.62744,19.94832 z m 378.62841,6.50561 c 10.06329,-12.68454 9.59363,-49.89449 2.47741,-21.00142 -0.82276,3.66881 -10.40267,40.38084 -2.47741,21.00142 z m 82.63409,1.49395 c -3.43899,-20.76368 -8.02647,-46.842 -12.15138,-30.28443 -2.33039,-7.35457 7.54721,31.20337 12.15138,30.28443 z M 526.0693,672.49532 c 20.93383,-26.75944 -30.21605,16.83992 0,0 z m 124.54229,-1.76686 c 1.44789,-4.93211 10.84669,-30.1584 1.3898,-13.81439 5.26775,-24.81144 31.58709,-51.71379 14.35652,-78.21598 -19.31499,10.98196 -12.28933,19.00384 -34.73946,3.83698 -9.91164,9.74928 -5.23885,45.85306 12.71208,56.48049 6.37818,19.76139 -8.00103,5.79436 -3.70145,6.19887 1.48628,2.36719 8.97964,45.85743 9.98251,25.51403 z m -352.91708,2.3631 c -3.67024,-1.19123 -3.66253,2.13788 0,0 z m 229.36401,-12.90587 c 17.02239,-3.15118 2.59953,-46.42035 -4.1115,-12.00856 2.30053,4.04305 -9.62332,23.07955 4.1115,12.00856 z m -290.07062,1.69098 c -5.29859,-1.16119 -5.8939,2.26972 0,0 z m 307.11303,-5.89657 c -2.156,-2.51721 -1.31709,3.49511 0,0 z m -2.08231,-0.34496 c -3.94436,-23.64948 -12.41727,4.07947 0,0 z m 73.94559,-4.70501 c -6.90415,0.48052 -1.24875,6.10056 0,0 z m -69.63823,-4.57967 c -10.28418,-10.30246 1.54539,15.88995 0,0 z m -278.89304,1.51491 c -6.57065,-13.16286 -46.3732,-52.50797 -24.23527,-15.71551 4.83747,1.42867 31.02728,24.07855 24.23527,15.71551 z m 137.65084,1.38821 c -1.77842,-18.03139 -10.12205,5.0558 0,0 z m -185.12875,-5.88777 c -9.59224,0.35072 -3.07379,10.60855 0,0 z m 412.99998,-2.57187 c -13.36974,-17.28489 2.6286,21.73448 0,0 z m 50.66054,5.85675 c -1.71184,-2.47258 -0.83946,2.53773 0,0 z m -58.46968,-2.20875 c -4.63222,-23.48537 -22.88781,13.96286 0,0 z M 298.6954,640.40377 c 4.32448,-26.58975 41.44641,-45.35512 28.78455,-72.649 -10.6199,11.13551 -14.15146,14.62485 -4.9904,-4.82041 -28.57499,15.60777 -20.98138,55.43944 -26.93523,82.53717 l 0.66629,-0.0989 z m 108.66732,-0.71108 c -4.61604,-13.60539 -2.21239,16.44778 0,0 z m 267.71432,3.09175 c 11.09933,-7.21295 17.86824,-13.93656 -0.95265,-5.59568 -5.47989,-0.59372 -3.52942,12.23707 0.95265,5.59568 z m -7.44564,-1.16599 c 23.26951,-5.32826 2.77132,-55.7486 0.81969,-14.85467 -1.92979,0.86663 -3.82996,16.04323 -0.81969,14.85467 z m -121.44816,-1.14043 c -5.62952,-5.59019 -1.43676,3.27798 0,0 z m 82.86508,-3.4751 c 5.85489,-14.17702 -10.46997,-43.69478 -9.29021,-12.34725 -10.0663,10.92221 -4.73881,2.02572 6.59397,16.38166 z m -223.87411,-1.77734 c 2.77883,-13.43328 -3.46798,-33.70711 -6.56247,-8.92973 6.44847,-3.07357 -1.91522,17.81522 6.56247,8.92973 z m 125.73877,-3.50697 c -6.21529,-13.51974 -4.55353,13.38538 0,0 z m 13.27385,-2.85983 c -17.38688,-21.41571 -2.79668,26.92363 0,0 z m 156.65114,3.25914 c -2.29463,-2.53085 -2.17635,3.87521 0,0 z M 532.8615,630.16576 c -6.80019,-14.3719 -4.73151,1.20631 0,0 z m -10.69907,-1.27146 c -0.18838,-15.03644 -22.2989,-22.97993 1.69602,-7.9254 -0.45473,-16.24283 -37.90216,-70.63401 -38.06214,-29.35639 -1.23301,10.10079 -9.90805,25.31454 10.13736,17.99425 11.05103,2.80774 18.04432,16.24435 26.22876,19.28754 z m -14.54275,-19.4164 c -3.76672,-2.96479 5.88518,3.13994 0,0 z m 192.19795,20.04524 c -2.15856,-7.31593 -5.41652,0.41401 0,0 z m -424.52238,-1.33848 c -2.74843,-1.4586 -0.64872,1.564 0,0 z m 263.60166,-2.53057 c 5.91261,-8.40403 -2.19641,-48.7908 -7.6515,-15.80684 -3.22609,4.36805 -0.61492,25.58844 7.6515,15.80684 z m -258.90201,1.19204 c 6.88976,-3.51349 -11.27338,3.56208 0,0 z m 34.75431,-8.65364 c 12.06809,-12.63127 26.9116,-46.79777 6.74436,-17.38491 -2.4409,4.49753 -23.70977,38.92867 -6.74436,17.38491 z m 79.62543,6.42045 c -8.99947,-21.75163 -31.09266,-47.94088 -38.18123,-52.44005 -9.0584,12.64426 -5.70305,-18.93337 -14.06711,1.4902 9.51091,13.49085 -17.4326,-0.89692 -4.78251,18.8476 0.62747,23.20607 14.20834,-0.27014 10.35059,-16.76385 17.02868,1.61885 -1.8919,35.60265 27.22156,34.47411 21.05259,13.48481 -20.10652,-18.76276 2.40361,-1.83472 5.78143,3.45983 14.08309,14.97528 17.05509,16.22671 z m -28.30611,-23.76507 c 1.7566,-1.26938 2.76341,2.23596 0,0 z m 116.9918,20.36309 c 7.75174,-8.23567 -28.6356,10.39706 0,0 z m 205.46821,-1.15954 c -2.08077,0.98536 2.37568,10.60788 0,0 z m -291.18449,1.20021 c 10.75829,-21.25617 -4.10603,-65.4974 -20.845,-30.04657 7.09301,7.31629 14.72726,29.62438 20.845,30.04657 z m 214.07421,-4.31479 c -2.31426,-4.51974 -1.18547,8.61856 0,0 z m 77.34315,-0.0356 c 4.34126,-21.84793 -8.59377,-21.13945 2.42813,-34.33754 -17.38969,-2.43804 -11.88312,14.50289 -5.68201,4.5181 -7.75597,17.2365 -8.0773,11.82375 0.3837,21.91353 -0.33845,-5.49405 -0.47643,11.70848 2.87018,7.90591 z m -346.40576,-2.3225 c 0.28487,-6.14354 -3.34432,5.15376 0,0 z m 129.85785,-4.26325 c -0.39248,-8.24636 -1.79812,9.82507 0,0 z m 141.11389,-6.1049 c -4.02453,-26.61417 -3.08362,28.17885 0,0 z m -386.10226,6.17325 c -3.58827,-10.12809 0.61742,8.34839 0,0 z m 399.474,-3.64404 c -3.363,-12.9426 -1.94019,12.33357 0,0 z m -289.18812,-1.19391 c -3.02862,0.17519 -0.48712,3.88317 0,0 z m 136.42507,-3.98591 c 3.45211,-16.31349 11.36087,-8.03807 -1.41813,-28.19299 3.2522,21.65265 -4.49582,14.95169 0.18014,32.4209 z m 199.33984,1.85064 c -2.45652,0.0553 1.13532,5.65235 0,0 z m -48.48557,-4.41859 c -3.82229,-1.12659 -0.6937,1.21485 0,0 z m -3.1379,-0.65377 c -2.74846,-1.4586 -0.64871,1.56399 0,0 z m -3.97665,-0.64621 c -8.95232,-6.66527 7.39673,-9.81348 -7.58667,-5.86717 0.27597,3.71416 4.22429,5.86351 7.58667,5.86717 z m -20.16035,-7.56444 c -5.18941,0.93108 -3.50893,11.69286 0,0 z m -19.0722,-3.15374 c 5.78931,-11.64853 -16.39744,-14.05265 -3.85672,3.45452 z m -198.84108,-5.52371 c 15.03361,-18.27765 -18.16497,7.27331 -3.62009,4.19696 z m 271.80389,1.70354 c -16.93962,-11.43351 -6.4089,12.18511 0,0 z m -237.70755,2.46176 c 19.82789,-15.73732 -9.36478,-10.98271 -1.54851,1.34241 z m 281.71678,-2.12809 c 6.92648,-7.29745 -10.98054,5.123 0,0 z m -323.4518,-1.75968 c -2.42339,-7.40468 -2.68458,7.4018 0,0 z m 181.85487,-3.06072 c 12.36712,-16.96156 -19.35122,11.81709 0,0 z m -90.80085,1.69694 c 13.93817,-13.15751 -9.83659,4.23328 0,0 z m 195.41544,-2.68549 c 2.94904,-5.1732 -16.83207,1.34883 -4.09709,3.13178 z m -321.57102,-0.2049 c 6.4634,-26.30132 -15.99383,1.88063 0,0 z m 34.19624,-0.34749 c 15.70828,-36.13847 -19.1587,8.7493 0,0 z m 87.96885,0.28794 c 13.49074,-19.14866 -17.66875,7.03792 0,0 z m -78.21714,-7.59672 c 7.80098,-12.49021 -13.96303,6.78098 0,0 z m 10.73964,-5.01675 c -13.7014,-17.99574 -6.13511,7.15881 0,0 z m -1.16482,-12.10314 c 3.16946,-16.02794 -17.92791,-40.88522 -5.9261,-10.85615 0.50166,-0.10902 3.96794,19.50651 5.9261,10.85615 z m 141.79291,-24.4707 c 5.38063,-5.24214 -16.20315,5.32079 0,0 z m 119.2306,-8.36867 c -6.33411,-4.85649 6.22179,9.37096 0,0 z m -8.05061,2.54835 c -1.77911,-2.57087 -2.6683,2.48849 0,0 z m -279.4141,-4.85872 c 0.63852,-5.47662 -5.08043,9.70953 0,0 z m 284.96692,-2.16423 c -2.40895,-1.19655 -1.14534,3.24058 0,0 z m 3.47051,0.0819 c -1.77338,-2.49009 -1.77343,2.49007 0,0 z m -14.09653,-4.15784 c -6.15172,-11.46649 -30.92886,-9.4765 -8.0788,3.38322 2.65951,-1.20686 5.24635,-2.58572 8.0788,-3.38322 z m 12.95036,1.09723 c 9.58223,-28.24325 -13.71387,-2.70492 0,0 z m -142.64448,-2.17783 c 3.38485,-7.41233 -5.09574,6.28811 0,0 z m 147.17995,-3.28615 c 7.09473,-21.73512 -3.85861,-13.79135 -2.61285,-9.34856 3.05487,-10.28784 -1.78319,17.72325 2.61285,9.34856 z m -140.82835,-6.9192 c 5.82062,-4.55798 -17.25876,-28.88219 -7.17272,-2.4845 -1.44206,10.47497 5.04061,11.7802 7.17272,2.4845 z m 151.05811,-2.84434 c 17.32946,-9.65553 -12.07371,-21.2593 -5.92528,2.2558 -4.06757,8.6097 6.21959,-4.05134 5.92528,-2.2558 z m -18.31001,-4.35313 c -6.05333,-6.24725 2.76804,20.26944 0,0 z m -255.75061,5.16844 c 5.38435,-11.95466 -10.48295,8.84006 0,0 z m 279.26409,-1.03544 c 21.12065,-15.16338 -24.18943,12.83232 0,0 z m -292.58304,1.33433 c -3.08542,-0.0832 -1.67856,3.59412 0,0 z m 135.18543,-12.02303 c -8.97955,-30.20443 1.70779,22.50093 0,0 z M 355.57792,474.94974 c 11.78721,-10.12421 22.25503,-23.11514 0.66245,-31.44961 3.08416,14.50653 -2.79624,26.32991 -4.09413,11.75178 -7.13301,3.59522 0.63639,29.57645 3.43168,19.69783 z m -5.28462,-0.61001 c -7.61872,-22.12453 -13.90873,2.54555 0.42816,1.90787 z m 142.44404,-12.32032 c -0.49206,-5.17294 -3.01625,5.68398 0,0 z M 349.0287,454.15414 c -12.52274,0.55569 2.70137,16.50098 0,0 z m 160.98237,-7.34183 c 2.24421,-13.44209 2.07812,-37.5659 -10.05557,-13.6663 1.23317,1.48932 10.4854,33.48087 10.05557,13.6663 z m -167.89656,5.14535 c 1.46902,-7.42131 -15.10014,6.1929 0,0 z m 31.93129,1.06283 c -3.92345,-5.68732 -3.53375,2.99198 0,0 z m -28.90244,-10.12654 c 23.51889,-29.84512 -27.87429,15.30727 0,0 z m 25.19588,-1.31158 c -8.45283,-4.28196 2.81565,11.92115 0,0 z m -4.96972,-0.38604 c -8.18958,-7.77827 2.40625,7.31862 0,0 z m -21.86424,-9.10724 c -10.03617,-6.0516 -7.70517,17.7659 0,0 z m -7.29496,1.04652 c -0.94623,-15.31862 -5.75298,9.80047 0,0 z m 35.30766,0.59912 c 6.70473,-24.10999 -10.43402,-7.90502 -10.40208,-13.17015 -9.274,-1.26753 8.14211,22.76266 10.40208,13.17015 z m -14.30403,-1.89744 c 14.31619,-18.00996 -24.91538,3.11213 0,0 z m 147.35057,-10.94085 c 1.612,-22.86307 -16.35697,24.47882 -2.23404,5.64213 z m -160.36513,8.78492 c -5.56037,-7.27267 -4.77568,1.82673 0,0 z m 7.10916,-4.51837 c 8.45046,-7.12521 -6.94991,-24.70339 -9.88557,0.0489 1.93843,3.44457 7.5163,7.86474 9.88557,-0.0489 z m -12.35528,1.65909 c -11.69411,-3.53564 20.03966,-13.23262 4.2512,-27.21676 -15.65951,-15.32282 12.03762,32.1047 -10.20772,1.74006 0.77598,4.35875 -4.29382,30.59612 5.95652,25.4767 z m 19.72068,-8.01056 c 1.39508,10.49403 17.99925,-31.15377 0,0 z m 13.98364,-3.62196 c 24.49203,-7.36042 -14.35199,-8.4024 0,0 z m 17.06229,-3.14554 c 4.59773,-8.3709 -23.40771,-7.3101 0,0 z m -39.96767,-6.83344 c -2.77482,-5.86882 -3.44491,1.12909 0,0 z m -27.07,-13.07444 c -1.58204,-2.49012 -1.7991,4.64156 0,0 z M 148.63599,859.50991 c -7.92841,7.94506 1.6847,-25.20031 0,0 z m 584.62468,0.67997 c -4.86643,-19.55611 -3.19807,-47.43676 -2.17853,-69.39788 -7.21269,-13.56693 4.68757,-32.04023 -0.46448,-30.18016 1.90317,-14.38717 -8.78508,-60.95911 18.12844,-44.94278 -6.91156,34.66488 -2.54526,44.78839 -3.95182,75.20497 2.1154,1.20595 17.82872,-51.56204 21.90489,-52.89913 17.15357,-11.1651 11.48052,-20.33947 -4.65011,-5.60306 9.33058,-19.37191 31.66646,-24.77967 34.80876,-2.10495 19.74967,7.35078 -5.74625,3.27084 -3.53569,11.05519 -6.27693,-2.21622 -4.48823,-27.24294 -12.64752,-4.10682 9.59758,5.83109 -8.95726,6.2192 -8.59501,6.26234 -13.50588,-1.18731 6.10408,30.39591 13.24418,27.72868 0.79681,5.75794 -11.50386,-6.33343 -7.62535,9.25564 -11.22931,-26.78063 -7.87804,17.83043 -13.48199,-6.97671 -6.36358,10.56828 -5.1419,-12.38092 -12.92509,9.50917 1.99044,13.36496 -16.77928,35.3053 -5.89037,28.90111 -3.56617,8.07546 11.96164,57.82412 -12.14031,48.29439 z m 37.49972,-93.39044 c -9.57114,-11.11286 4.50107,13.14141 0,0 z m -11.87561,1.64418 c 12.72269,-10.12054 -5.93342,-12.14221 0,0 z m 18.43461,-34.336 c -1.7791,-2.57088 -2.6683,2.48849 0,0 z m 44.30741,121.12089 c -3.09435,-23.41924 9.83318,5.55092 0.67564,-1.56173 l -0.27163,1.93522 z m -687.4149,-9.16847 c 1.41722,-14.8965 13.36841,-4.97568 6.94311,-1.32601 3.32971,5.62886 -8.02159,-3.46251 -6.94311,1.32601 z m 639.83028,-2.80479 c -9.32993,2.31577 8.33764,-16.31291 0.30719,2.24215 z m 53.65725,-2.5852 c -7.3088,-6.77222 9.85703,-14.6265 6.53866,0.73948 -0.0159,-17.76565 -5.15163,6.76164 -6.53866,-0.73948 z m -39.2744,-14.68545 c 7.5437,-9.02815 -16.12943,-2.24615 5.21479,-7.18899 3.06853,2.43115 -3.28834,7.56914 -5.21479,7.18899 z m -27.41706,-5.77985 c -9.40255,-4.26281 20.68357,2.22053 0,0 z m 33.83903,-5.92829 c 0.66177,-4.53168 0.42828,5.39372 0,0 z m -36.61544,0.247 c -16.00044,-2.10666 17.30598,-0.20541 0,0 z m -633.33451,-2.3293 c -8.24369,-11.55254 -22.07383,-0.899 -3.79595,-11.75512 22.33666,11.02586 -2.96326,-2.54624 4.19321,11.66664 l -0.39726,0.0885 z m 669.21608,-2.77641 c 0.75656,-3.29637 0.40723,4.1809 0,0 z m 46.37785,-4.64423 c 6.43719,-13.87545 -18.65397,2.22435 3.50799,-11.66578 19.34523,3.386 7.23121,9.54158 1.75442,4.99827 l -3.26009,4.75875 -2.00232,1.90879 z m -68.67548,-2.47033 c -12.13278,-1.68673 2.55502,-14.5155 0,0 z m 14.04586,-2.42936 c -4.544,-4.66087 4.16813,-3.22731 0,0 z m -655.5341,-1.73525 c -2.25479,-3.44996 3.94845,4.38221 0,0 z m 634.91238,-4.2297 c 0.31396,-3.55203 3.50628,0.48449 0,0 z m -662.94516,-2.71133 c -10.441937,6.14745 3.79412,-17.63597 9.32531,0.23886 0.63412,-9.78899 -9.51115,9.1984 -9.32531,-0.23886 z m 659.46542,-0.77403 c -12.80222,-3.47169 8.65731,-0.80347 0,0 z m -602.46622,-3.04353 c -8.063,3.29186 8.60728,-17.09331 0,0 z m 643.84875,-2.59851 c -6.82853,-18.25672 11.66368,3.69412 0,0 z m -27.74432,-1.39258 c 0.55819,-4.34395 0.55819,4.34395 0,0 z m 80.69748,-0.77978 c -9.28307,5.1153 5.90412,-18.5226 9.53745,0.0857 -0.97517,-2.7749 -7.89747,-1.11885 -9.53745,-0.0857 z M 781.4915,758.22768 c 5.31842,-11.73789 -15.62867,-2.01793 4.60301,-10.38979 3.17352,3.41193 -2.21248,8.41796 -4.60301,10.38979 z M 69.357042,750.35727 c 17.795682,-17.45941 11.801386,4.33079 1.886509,-1.88352 l -1.886509,1.8835 z m 29.158486,-5.87809 c -7.994378,-7.24693 17.909722,-2.03127 -0.937333,2.02611 l 0.937333,-2.02609 z m 65.614352,-3.35117 c -7.65725,-1.69724 -16.67643,-3.82157 0.93606,-6.75116 8.23363,7.72647 1.07242,6.66386 -0.93606,6.75116 z m 720.90596,-2.82768 c -4.30621,-3.76106 -15.19869,-0.37849 -0.50607,-7.98421 10.78825,11.72335 -1.06163,0.80212 2.19288,10.03841 z m -25.70379,-2.23142 c -16.44804,-3.64551 13.10132,-5.38884 0.91462,-1.37709 1.37713,1.26894 4.22414,5.53478 -0.91462,1.37709 z M 97.792974,734.10762 c 2.173394,-2.08052 3.611616,2.73643 0,0 z m 7.379016,-7.80866 c -8.174035,5.83118 0.11877,-16.05072 11.3611,-4.52885 -0.22303,-5.24815 -14.65018,10.87819 -11.3611,4.52885 z m 753.70445,-1.21468 c 2.49061,-2.64255 0.862,2.73639 0,0 z M 84.511356,721.62642 c -17.394163,0.51654 1.331137,-11.73705 11.037939,-8.99422 -12.86967,1.38917 3.378878,13.07518 -10.059378,5.93275 -0.379051,1.16923 3.003942,10.14807 -0.978561,3.06147 z m 766.382904,-3.83021 c -11.73087,1.95688 -10.62905,-12.88178 3.81666,-3.03107 5.01484,10.66232 -1.60999,-1.76625 -3.81666,3.03107 z m 20.43021,-6.94103 c -5.07344,4.04517 -7.0562,-10.10229 -8.07595,-8.53654 22.98738,0.50643 18.62523,9.06828 8.07595,8.53654 z m -136.33104,0.96061 c -3.98124,-9.90651 -2.28184,-42.63541 4.47245,-48.20379 22.82029,3.77446 -17.1983,-2.23901 -0.2169,-16.12153 0.0868,-15.11786 1.7012,-41.60483 13.53589,-32.76844 -18.16078,-4.45168 1.79594,-34.58451 2.61337,-45.19537 25.58408,3.17993 -0.86444,40.86435 0.40599,59.63394 -3.7559,12.44904 -3.93263,39.87506 5.12919,12.65358 6.47997,-17.70258 37.75446,-61.21766 43.05243,-61.37249 -13.18544,12.50226 -36.29938,46.15765 -35.64496,53.69197 12.86592,-14.48245 23.69629,-21.66163 3.98011,-2.9072 -13.26933,15.09243 -26.16562,34.4261 2.44819,34.87311 18.50173,9.14523 18.02694,11.44692 -1.68345,5.02802 -19.60288,-4.81135 30.43142,26.93894 -2.80206,9.2716 -11.50084,-6.13604 -23.66162,-22.18745 -12.19734,-0.22275 4.71736,17.41859 -8.09599,-12.27676 -5.16885,9.16161 -12.82341,-28.57656 9.83969,41.24702 -17.92406,22.47774 z m -608.50616,-6.05058 c 9.58003,-16.67974 51.96319,0.93264 14.93755,-2.41878 -2.7403,-3.74161 -21.79741,8.15717 -14.93755,2.41878 z m -15.13679,-14.02136 c 9.32657,-15.62226 48.24321,0.1002 16.0993,-1.99258 -1.65973,-5.08855 -22.70974,8.22302 -16.0993,1.99258 z m 46.87521,-37.71654 c -0.29269,-15.04265 -12.76336,18.17176 -4.90463,-10.00393 -24.84771,10.80881 -9.98028,-1.63613 -5.42027,-3.86293 -33.14069,6.68991 27.49077,-17.24915 13.43876,10.49734 -1.89775,6.38421 -3.68884,17.19018 -3.11386,3.36952 z m 636.78498,-5.64136 c 4.41177,-19.16053 5.46631,-30.52829 -13.44149,-12.75028 -16.74606,8.98288 25.4851,-39.02668 39.54422,-17.01245 30.0653,14.7059 -8.28115,-0.49512 -5.19424,7.05456 23.47403,18.95608 3.79125,5.76857 -10.14157,1.85672 -1.69186,0.79756 -13.32771,33.93756 -10.76692,20.85145 z m -600.18074,-5.17817 c 1.98185,-17.80018 -12.82451,15.73688 -4.2021,-10.4618 15.5737,-26.75558 3.3684,33.94355 4.2021,10.4618 z m -56.77901,-5.8038 c 1.53726,-4.71111 -5.95296,-5.64647 5.5169,-8.32548 l -0.53344,2.35252 z M 121.774,628.25697 c 0.68465,-5.50142 -7.7589,-4.18421 7.49989,-7.72196 10.57646,11.1421 1.01486,0.78348 -7.49989,7.72196 z m 80.45287,-5.25194 c -0.84796,-3.48127 2.25917,2.64346 0,0 z m -4.12239,-10.34094 c -5.13667,-24.32403 -20.23599,24.2922 -11.33774,-5.95466 6.77673,-20.59707 -23.7868,25.51246 -7.27748,-3.90416 12.37438,-44.40888 49.85531,41.08496 19.78826,-1.27125 -0.13954,6.95076 7.70229,29.51561 -1.17304,11.13007 z m 590.32055,3.25398 c 0.30702,-2.08736 9.03745,-4.11713 0,0 z m 4.85871,-3.5512 c 0.31634,-1.86367 4.10445,0.62205 0,0 z M 116.60285,601.53402 c 5.82411,-25.20103 3.25172,-32.94371 -18.863866,-13.89088 -0.685287,-13.98386 42.911256,-37.52481 58.431746,-11.22263 -16.91409,-5.96985 -26.14991,-5.01369 -5.27891,9.19342 -27.02324,-15.61846 -22.04491,-10.82003 -34.28897,15.92009 z m 709.55207,-7.98217 c 4.36916,-20.55942 -3.40396,-13.57781 -9.88291,1.04115 -2.04194,-30.6585 27.80009,-38.44458 37.39866,-8.10997 -14.75485,-14.80489 -19.62255,-12.02347 -8.2188,6.37471 -14.72086,-20.91797 -11.89998,-11.70061 -19.29695,0.69411 z m -616.23403,-4.46257 c -8.06858,-13.03989 -0.22042,-44.80024 6.05151,-17.63247 1.13491,8.41657 10.33664,20.88951 -6.05151,17.63247 z m 44.43157,-5.06226 c -1.82185,-12.92308 -22.75126,-43.16458 1.70632,-33.59808 -2.19063,12.61842 25.80837,37.7064 -1.70632,33.59808 z m -73.96128,-8.51723 c -15.16461,-11.02333 -24.83734,-8.2407 -20.47603,-5.21038 -9.94162,-4.56869 19.25694,-22.00659 30.12092,-3.8568 13.84105,8.79601 -36.92802,-11.09451 -3.41751,10.15762 8.02409,5.99081 -6.43133,-1.24795 -6.22738,-1.09044 z m 425.62023,-0.69871 c 0.75642,-3.29638 0.40714,4.18088 0,0 z m 203.9308,-0.60913 c 2.34549,-2.81571 3.28212,-1.9171 0,0 z m -204.65066,-3.20844 c 0.60744,-3.12861 0.60744,3.12861 0,0 z m 156.25435,-0.67393 c -10.62835,-4.71008 10.58148,-39.09182 5.53068,-37.48518 17.6372,-6.44423 2.91272,43.4051 -5.53068,37.48518 z m -275.07423,-6.83681 c -5.55197,-20.77705 17.17398,-25.98178 6.69499,-1.85964 1.38975,4.37522 -5.40186,2.95514 -6.69499,1.85964 z M 204.1335,560.40702 c -10.49836,-19.38207 6.21858,-30.02046 6.78908,-4.41524 2.74333,3.9035 -4.15099,6.73152 -6.78908,4.41524 z m 100.50309,-5.44717 c -14.40367,-0.36524 6.51374,-51.90024 6.12566,-39.53505 19.29986,0.49343 -3.02479,29.47086 -0.96882,40.12436 z m -64.07581,-6.03427 c -4.39092,-10.28688 -16.57393,-40.34919 1.60553,-27.39614 -1.96848,10.58378 21.80752,29.40861 -1.60553,27.39614 z m -71.93105,-10.20784 c 3.22578,-20.04225 6.2849,-33.04763 -13.67466,-14.78227 -26.25749,13.07754 40.47269,-46.88308 22.25746,-1.77192 -2.95671,2.42529 -7.66446,19.2368 -8.5828,16.55419 z m 31.01278,-0.0679 c -0.29017,-20.90232 -22.25511,-41.89952 -26.29986,-49.60416 -24.11565,-10.85848 -21.28883,-2.42893 -8.74233,7.81123 -21.78416,-16.07782 -18.03185,-3.22469 -13.53345,6.02102 -11.28028,-23.26173 -12.04348,-1.87204 -11.00288,1.14721 -7.2208,-3.16904 -8.62613,20.0526 -6.47072,-5.54331 1.81507,-26.38966 -19.69301,32.08233 -8.91755,-5.64602 -32.006492,29.02273 6.15663,-33.92186 28.02339,-15.69012 13.3458,7.35191 23.27324,10.965 4.95819,-1.64754 12.97611,14.93606 28.28194,17.29252 28.98038,-7.6163 -12.01695,-4.42516 -51.71568,-3.47385 -19.08782,-3.38747 7.70305,-0.62022 31.17774,4.31908 11.71037,-5.17208 23.40848,5.6767 19.22581,-9.75449 3.96973,-23.94734 17.11976,36.62417 19.29561,-25.98241 43.27259,-3.78858 19.88958,12.88097 8.64132,8.53773 -5.85384,3.37003 13.16101,14.04622 15.81064,19.10316 -3.21303,5.10202 -14.47451,-3.19767 -5.96291,35.59799 -4.12775,5.47089 -2.15301,19.79396 27.95881,19.7788 4.06052,21.86207 6.87376,9.89067 -1.2037,12.9161 7.99705,26.85564 -2.59385,-6.62979 22.5123,32.19209 2.69939,21.03719 -4.68264,-26.15655 -12.18178,-6.17745 -11.96812,5.19292 -3.33876,-23.32478 -5.03965,-3.29263 -5.8576,-3.54349 0.31713,8.78516 -26.26475,-22.80292 -13.61298,2.4726 -0.0603,3.89052 17.03549,21.09767 3.01632,19.24359 z m 7.03862,-32.95513 c -17.09166,-9.89124 1.63772,14.32919 0,0 z m -17.26662,-1.02116 c -2.27816,-15.88684 -9.39591,-6.28863 0,0 z m 21.73807,-5.49504 c 22.70367,-14.02481 -28.27492,-40.14868 -6.1133,-9.14904 -1.30259,20.22555 -4.16757,-16.26503 -6.89947,6.62838 3.80686,-0.33407 10.83132,10.84968 13.01277,2.52066 z m -25.27788,-6.95294 c 9.47252,-18.16329 -19.82718,10.29347 0,0 z m 11.17494,-0.0977 c -5.02826,-9.77318 -9.30714,12.33122 0,1.89956 z m -5.89987,-6.50898 c -0.862,-2.73639 -2.49064,2.64257 0,0 z m 22.01404,-9.10741 c -11.96677,-24.08262 -21.15108,-4.92178 -1.62873,2.68696 l 4.35294,2.94994 z m -25.20541,3.27983 c 5.57033,-12.19503 -7.08474,5.94816 0,0 z m 4.78781,-2.64047 c 5.28582,-20.78214 -7.29658,2.40414 0,0 z m 23.7383,-1.57861 c -7.09004,-14.56606 -0.83075,11.1123 0,0 z m -0.32382,-9.21468 c -10.45583,-12.92023 -6.20537,4.96093 0,0 z m -12.06617,-12.65791 c 17.49905,-30.14721 -18.42938,0.28217 0,0 z m 566.93741,79.15415 c -14.44128,-7.28526 12.84623,-50.14035 10.25501,-22.23733 -5.48274,5.30516 1.96197,26.78406 -10.25501,22.23733 z m 8.54759,-31.94716 c -12.19939,-8.47577 9.70909,-27.03103 3.62877,-26.98395 10.24862,-12.36906 1.18057,-67.2764 5.8487,-24.13351 1.67098,20.25953 25.48527,-37.62446 4.03748,-28.69097 13.23552,36.22786 -8.54314,-23.05774 -19.806,8.89418 -7.40167,5.90976 16.33771,-25.70835 -6.38062,-6.86805 -12.80182,3.72738 29.73305,-34.23186 34.40192,-2.56536 10.79675,10.65983 18.71182,-27.73137 29.52599,-31.28007 -10.88018,-0.0996 -41.94438,-0.97559 -11.56015,-5.49797 16.21035,-11.40672 74.18579,20.87045 30.25057,7.20358 15.82825,14.30724 15.27755,14.45581 -4.13596,5.45477 -6.49441,21.05241 -7.93152,20.5532 -6.28182,-1.05373 -6.49793,8.57069 -14.15284,26.49653 -8.44564,4.85872 -23.3282,14.92774 -30.1153,43.0892 -37.401,60.29492 4.59832,-7.03058 46.50421,-39.60977 22.92737,-19.38869 17.17998,-4.49856 45.19105,-8.56473 12.31387,-1.52934 -23.90572,3.92247 -53.98168,31.98061 -23.31691,48.58416 9.38717,27.69897 -12.70714,-21.9361 -7.60182,10.18343 -0.52851,5.49923 -10.54564,-35.58774 -12.51366,-5.32091 -0.86266,3.0376 1.25233,11.33719 -5.49109,7.83879 z m 24.84346,-28.82274 c -15.03547,-37.70755 58.45522,3.42052 12.03157,-10.56131 19.46527,15.08327 11.43312,13.73391 -5.40359,3.70446 4.9557,18.55116 -7.52733,-9.33968 -4.92632,11.71557 -0.56722,-1.61957 -1.13444,-3.23915 -1.70166,-4.85872 z m 63.90221,-0.86763 c 7.33706,-34.39625 -16.95585,19.64822 -8.00538,-7.91881 -1.54486,-38.71905 45.89978,1.40267 32.24822,-0.0279 -24.29675,-24.60912 10.44832,30.95709 -13.72068,-1.77061 -6.44958,-16.63785 -9.16556,23.61039 -10.52216,9.71728 z M 427.66474,462.8856 c 0.29364,-29.28123 -26.30281,25.37354 -12.37036,-6.43247 4.05332,-13.30712 -27.72501,21.39571 -4.67559,-6.56142 20.63397,-32.26749 -10.58764,8.89745 -4.56502,0.87146 -1.36389,-33.71456 33.71126,-34.65357 42.3787,-4.87124 -21.62746,-23.08805 -12.48193,6.72268 -12.26708,3.28096 11.16896,33.56441 -2.62028,2.0545 -5.8253,6.09018 0.2406,6.90154 1.78094,24.23789 -2.67535,7.62253 z m 0.38184,-22.73013 c -1.8055,-17.82206 -10.89162,7.756 0,0 z m -281.83995,24.87475 c 3.82229,-1.12659 0.6937,1.21485 0,0 z m 142.67749,-8.43624 c -0.59165,-29.80866 -27.58626,25.20455 -11.64394,-9.41921 -0.88093,-6.41753 -26.84357,21.48226 -7.61037,-2.11624 12.98992,-34.05072 41.17911,17.40873 29.52265,12.00089 -14.45109,-33.77457 -2.60505,25.45729 -10.26834,-0.46544 z M 156.93543,434.28879 c -2.096,-23.29103 -33.55487,17.3652 -11.62014,-10.28541 3.49925,-7.9262 -31.23599,14.00813 -6.05372,-4.7708 11.39627,-15.03035 76.89466,-10.66993 31.75923,-4.07599 -20.49616,0.18789 36.42262,29.85842 1.92116,13.3665 -12.5629,-4.1613 8.14234,23.409 -9.20924,0.88807 -14.45793,-20.17906 5.49197,28.75729 -6.79729,4.87763 z m 695.88003,0.15757 c 9.15186,-0.96336 1.92022,0.99117 0,0 z m -26.21479,-2.54616 c 0.31634,-1.86367 4.10445,0.62205 0,0 z M 456.94082,400.69913 c -0.51144,-21.22328 -34.02155,11.1157 -9.32015,-11.93353 3.73158,-6.63968 -34.78804,9.12849 -4.45281,-5.60038 15.98692,-12.67811 76.7345,2.74752 28.9082,1.39971 -13.84607,-0.47495 32.80291,35.1605 -3.91605,10.82067 9.43837,31.36741 -15.95498,-26.08963 -7.63157,11.58583 1.35881,9.88447 -4.12387,-9.95686 -3.58762,-6.2723 z"
         id="path114956" />
      <rect
         style="fill:#483737;fill-opacity:1;stroke:#000000;stroke-width:0.430716"
         id="rect115316"
         width="3477.917"
         height="115.19382"
         x="-159.55241"
         y="888.86816"
         ry="2.6779435" />
      <path
         style="fill:#483737;fill-opacity:1;stroke:#483737;stroke-width:1px;stroke-linecap:butt;stroke-linejoin:miter;stroke-opacity:1"
         d="M -159.55241,890.86816 C 10.452034,863.47001 -95.128931,832.57702 10.452034,863.47001 L 116.033,894.363 v 0 c 0,0 300.23515,55.17994 695.30206,3.47051 l 395.06694,-51.70943 186.2093,0.81541 362.4261,11.48983 c 0,0 168.5817,68.9686 597.1447,11.38604 321.2608,-90.14399 476.3074,-15.42129 539.325,-13.12064 246.7866,7.45727 68.7024,-19.25891 246.7866,7.45727 l 178.0842,26.71617"
         id="path122237"
         sodipodi:nodetypes="csccscccccsc" />
    </g>
  </g>
</svg>
