<?xml version="1.0" encoding="UTF-8" standalone="no"?>
<!-- Created with Inkscape (http://www.inkscape.org/) -->

<svg
   width="75.472549mm"
   height="14.55716mm"
   viewBox="0 0 75.472549 14.557162"
   version="1.1"
   id="svg86914"
   inkscape:version="1.1.2 (0a00cf5339, 2022-02-04)"
   sodipodi:docname="earthcup-logo.svg"
   xmlns:inkscape="http://www.inkscape.org/namespaces/inkscape"
   xmlns:sodipodi="http://sodipodi.sourceforge.net/DTD/sodipodi-0.dtd"
   xmlns="http://www.w3.org/2000/svg"
   xmlns:svg="http://www.w3.org/2000/svg">
  <sodipodi:namedview
     id="namedview86916"
     pagecolor="#ffffff"
     bordercolor="#666666"
     borderopacity="1.0"
     inkscape:pageshadow="2"
     inkscape:pageopacity="0.0"
     inkscape:pagecheckerboard="0"
     inkscape:document-units="mm"
     showgrid="false"
     inkscape:zoom="2.7865881"
     inkscape:cx="83.255936"
     inkscape:cy="103.53163"
     inkscape:window-width="1920"
     inkscape:window-height="1016"
     inkscape:window-x="0"
     inkscape:window-y="0"
     inkscape:window-maximized="1"
     inkscape:current-layer="g91585"
     showguides="true"
     inkscape:guide-bbox="true">
    <sodipodi:guide
       position="84.338011,-0.4790861"
       orientation="0,-1"
       id="guide97642" />
    <sodipodi:guide
       position="90.145001,14.674392"
       orientation="0,-1"
       id="guide97644" />
  </sodipodi:namedview>
  <defs
     id="defs86911" />
  <g
     inkscape:label="Layer 1"
     inkscape:groupmode="layer"
     id="layer1"
     transform="translate(-34.638666,-106.58547)">
    <g
       id="flowRoot458-2"
       style="font-style:normal;font-weight:normal;font-size:40px;line-height:1.25;font-family:sans-serif;letter-spacing:0px;word-spacing:0px;fill:#ffffff;fill-opacity:1;stroke:none"
       transform="matrix(0.30338993,0,0,0.30338993,11.721932,22.691673)"
       aria-label="earthcup.io">
      <path
         id="path627-6"
         style="font-style:normal;font-variant:normal;font-weight:bold;font-stretch:normal;font-family:Arvo;-inkscape-font-specification:'Arvo Bold';letter-spacing:-0.827161px;fill:#ffd8aa;fill-opacity:1;stroke-width:1.0236"
         d="m 81.493231,299.78475 0.05997,0.61975 q 0.219914,0.89964 0.739708,1.57938 0.539787,0.67973 1.259503,1.13955 0.719716,0.45982 1.599368,0.69972 0.879653,0.21992 1.779297,0.21992 0.899645,0 1.699329,-0.10001 0.819677,-0.11995 1.579376,-0.29988 0.759701,-0.19992 1.479414,-0.43983 0.71972,-0.25989 1.45943,-0.53978 l 2.19913,4.09838 q -1.13955,0.69972 -2.09917,1.19953 -0.93963,0.47981 -1.899254,0.79968 -0.959621,0.31987 -2.039194,0.45982 -1.079574,0.15994 -2.519006,0.15994 -2.698933,0 -4.798105,-0.87966 -2.09917,-0.89964 -3.538602,-2.41904 -1.41944,-1.5194 -2.179139,-3.5586 -0.739708,-2.03919 -0.739708,-4.31829 0,-2.2791 0.779692,-4.27831 0.799684,-1.99921 2.239115,-3.47862 1.439432,-1.49942 3.438642,-2.35907 1.999211,-0.85967 4.438248,-0.85967 2.439036,0 4.318294,0.81969 1.899247,0.79968 3.198737,2.23911 1.2995,1.41943 1.99922,3.35867 0.69971,1.91925 0.7597,4.13836 0.06,0.49981 0.06,0.99961 0.02,0.47981 -0.02,0.99961 z m 4.778113,-7.55702 q -1.119558,0 -1.919242,0.27989 -0.779692,0.2599 -1.319479,0.73971 -0.539786,0.45982 -0.85966,1.05958 -0.319874,0.59976 -0.499803,1.25951 h 8.656582 q -0.139945,-0.67974 -0.399843,-1.2795 -0.259898,-0.59976 -0.719715,-1.05958 -0.459819,-0.45982 -1.179535,-0.71972 -0.699724,-0.27989 -1.759305,-0.27989 z"
         inkscape:connector-curvature="0" />
      <path
         id="path629-1"
         style="font-style:normal;font-variant:normal;font-weight:bold;font-stretch:normal;font-family:Arvo;-inkscape-font-specification:'Arvo Bold';letter-spacing:-0.827161px;fill:#ffd8aa;fill-opacity:1;stroke-width:1.0236"
         d="m 111.75427,307.72162 q -0.69972,0.43982 -1.27949,0.75969 -0.57978,0.29988 -1.15954,0.47981 -0.57978,0.19993 -1.19953,0.27989 -0.61976,0.10001 -1.35946,0.10001 -1.85927,0 -3.33869,-0.4998 -1.45942,-0.51981 -2.47902,-1.39945 -0.999604,-0.89965 -1.539394,-2.09917 -0.53979,-1.21953 -0.53979,-2.63897 0,-1.43943 0.53979,-2.65894 0.55978,-1.21952 1.599374,-2.07918 1.03959,-0.87966 2.539,-1.35947 1.51939,-0.4998 3.45863,-0.4998 1.41944,0 2.57898,0.15994 1.17954,0.13994 2.17914,0.35985 v -0.63974 q 0,-0.7797 -0.29988,-1.33947 -0.29989,-0.57978 -0.83967,-0.93963 -0.53979,-0.37985 -1.29948,-0.53978 -0.75971,-0.17994 -1.65935,-0.17994 -1.87925,0 -3.31869,0.37985 -1.41944,0.35986 -2.73892,1.05958 l -1.919254,-3.87847 q 2.039204,-1.39945 4.258334,-2.13915 2.23911,-0.73971 4.73813,-0.73971 1.93923,0 3.57858,0.43983 1.65934,0.41984 2.83888,1.39945 1.17953,0.95962 1.83927,2.519 0.67974,1.55938 0.67974,3.7985 v 7.53702 h 2.7789 v 5.47785 h -8.63659 z m -4.5582,-3.09879 q 1.41944,0 2.57899,-0.45982 1.15954,-0.45982 1.97921,-1.11955 v -2.63896 h -4.7981 q -0.45982,0 -0.89965,0.13995 -0.43982,0.13995 -0.79969,0.39984 -0.33986,0.2599 -0.55977,0.63974 -0.19992,0.37986 -0.19992,0.87966 0,0.91963 0.65974,1.53939 0.67973,0.61975 2.03919,0.61975 z"
         inkscape:connector-curvature="0" />
      <path
         id="path631-8"
         style="font-style:normal;font-variant:normal;font-weight:bold;font-stretch:normal;font-family:Arvo;-inkscape-font-specification:'Arvo Bold';letter-spacing:-0.827161px;fill:#ffd8aa;fill-opacity:1;stroke-width:1.0236"
         d="m 142.5551,295.66637 h -5.61778 v -2.13915 q -0.81969,0 -1.49942,0.11996 -0.67973,0.0999 -1.19952,0.35985 -0.4998,0.25989 -0.85967,0.71971 -0.33986,0.45982 -0.47981,1.13955 v 7.49704 h 4.21834 v 5.47784 h -13.51466 v -5.47784 h 3.09878 v -9.75615 h -3.0588 v -5.47783 h 9.21636 v 1.45942 q 0.87966,-0.69972 1.97922,-1.07957 1.09956,-0.37985 2.39905,-0.37985 1.31948,0 2.71892,0.02 1.39945,0.02 2.59899,0.02 z"
         inkscape:connector-curvature="0" />
      <path
         id="path633-7"
         style="font-style:normal;font-variant:normal;font-weight:bold;font-stretch:normal;font-family:Arvo;-inkscape-font-specification:'Arvo Bold';letter-spacing:-0.827161px;fill:#ffd8aa;fill-opacity:1;stroke-width:1.0236"
         d="m 152.96397,288.12935 h 4.13837 v 5.23793 h -4.17835 l -0.04,8.75655 q 0,0.75969 0.11995,1.2395 0.11995,0.45982 0.33986,0.73971 0.23991,0.27989 0.55979,0.37985 0.31987,0.1 0.73971,0.1 0.75969,0 1.33947,-0.13994 0.57977,-0.15994 1.15954,-0.35986 l 0.85966,3.85848 q -1.0196,0.63974 -2.2791,1.01959 -1.23951,0.37986 -2.95883,0.37986 -1.21952,0 -2.33908,-0.41984 -1.09957,-0.41984 -1.93923,-1.25951 -0.83967,-0.85965 -1.33947,-2.13915 -0.4998,-1.27949 -0.47981,-2.97882 l 0.06,-9.17638 h -2.97883 v -5.23793 h 2.99882 l 0.04,-4.95804 6.21755,-2.95883 z"
         inkscape:connector-curvature="0" />
      <path
         id="path635-9"
         style="font-style:normal;font-variant:normal;font-weight:bold;font-stretch:normal;font-family:Arvo;-inkscape-font-specification:'Arvo Bold';letter-spacing:-0.827161px;fill:#ffd8aa;fill-opacity:1;stroke-width:1.0236"
         d="m 159.83424,277.73346 h 9.33631 v 12.31513 q 1.17954,-1.07957 2.57898,-1.67933 1.41944,-0.61976 3.11877,-0.61976 3.73852,0 5.71775,2.09917 1.97921,2.07918 1.97921,6.09759 v 7.41707 h 3.0388 v 5.47784 h -9.25634 v -11.49546 q 0,-1.73931 -0.85966,-2.73891 -0.85967,-0.99962 -2.21913,-0.99962 -0.89964,0 -1.95922,0.4998 -1.05958,0.49982 -2.13916,1.45944 v 7.79691 h 3.0388 v 5.47784 h -12.37511 v -5.47784 h 3.19874 v -20.15204 h -3.19874 z"
         inkscape:connector-curvature="0" />
      <path
         id="path637-2"
         style="font-style:normal;font-variant:normal;font-weight:bold;font-stretch:normal;font-family:Arvo;-inkscape-font-specification:'Arvo Bold';letter-spacing:-0.827161px;fill:#ffd8aa;fill-opacity:1;stroke-width:1.0236"
         d="m 202.7103,295.28653 q -0.85967,-1.07958 -1.91924,-1.61936 -1.05959,-0.55979 -2.49902,-0.47981 -1.15954,-0.0799 -2.11916,0.31987 -0.93963,0.39984 -1.63935,1.11956 -0.67974,0.71971 -1.05958,1.71931 -0.37985,0.97962 -0.37985,2.21913 0,1.09956 0.39984,2.07917 0.39984,0.97962 1.07957,1.69934 0.69972,0.69972 1.63935,1.09956 0.95962,0.39984 2.07918,0.47981 0.93963,-0.0799 1.69934,-0.37985 0.77969,-0.31988 1.37944,-0.79969 0.59977,-0.4998 1.01961,-1.09955 0.43982,-0.61976 0.67973,-1.15955 l 5.49782,1.5194 q -0.33986,1.19952 -1.17953,2.49901 -0.81967,1.29949 -2.15915,2.37906 -1.31948,1.05959 -3.15875,1.75931 -1.81928,0.69973 -4.15835,0.69973 -2.37907,0 -4.37828,-0.85967 -1.99921,-0.87965 -3.43864,-2.37906 -1.43943,-1.49941 -2.2591,-3.51861 -0.79969,-2.0192 -0.79969,-4.33829 0,-2.29909 0.81968,-4.25831 0.83966,-1.97923 2.29909,-3.43865 1.45942,-1.47941 3.45863,-2.29909 2.0192,-0.81967 4.37827,-0.73971 1.67934,-0.0799 3.25872,0.37986 1.57937,0.45981 2.99881,1.37945 h 3.97843 v 6.01763 z"
         inkscape:connector-curvature="0" />
      <path
         id="path639-0"
         style="font-style:normal;font-variant:normal;font-weight:bold;font-stretch:normal;font-family:Arvo;-inkscape-font-specification:'Arvo Bold';letter-spacing:-0.827161px;fill:#ffd8aa;fill-opacity:1;stroke-width:1.0236"
         d="m 222.79535,288.12935 h 9.79613 v 15.23398 h 2.49901 v 5.47784 h -8.77653 v -1.7593 q -1.05958,0.95962 -2.47902,1.47941 -1.41944,0.51979 -3.27871,0.51979 -1.71932,0 -3.23872,-0.53978 -1.5194,-0.53979 -2.65895,-1.61936 -1.11956,-1.09956 -1.7793,-2.73892 -0.63974,-1.63935 -0.63974,-3.85848 v -6.71735 h -2.69894 v -5.47783 h 9.15639 v 12.19518 q 0,2.07918 1.05958,3.11877 1.05958,1.0196 2.75891,1.0196 1.19953,0 2.17914,-0.7397 0.97961,-0.73972 1.41944,-1.99922 v -8.1168 h -3.31869 z"
         inkscape:connector-curvature="0" />
      <path
         sodipodi:nodetypes="ccccscscscccscccccccccccssccsscccscccs"
         inkscape:connector-curvature="0"
         id="path641-2"
         style="font-style:normal;font-variant:normal;font-weight:bold;font-stretch:normal;font-family:Arvo;-inkscape-font-specification:'Arvo Bold';letter-spacing:-0.827161px;fill:#ffd8aa;fill-opacity:1;stroke-width:1.0236"
         d="m 238.10229,288.12935 h 9.03643 v 0.29988 c 0.63974,-0.27989 1.29282,-0.4998 1.95923,-0.65974 0.6664,-0.17326 1.3528,-0.2599 2.05918,-0.2599 1.5194,0 2.93218,0.28656 4.23833,0.85967 1.30615,0.5731 2.43903,1.35279 3.39866,2.33907 0.95962,0.98627 1.70599,2.13915 2.23911,3.45864 0.54645,1.31947 0.81968,2.71892 0.81968,4.19834 0,1.49274 -0.26657,2.89885 -0.79969,4.21833 -0.51979,1.31948 -1.25284,2.47236 -2.19912,3.45863 -0.9463,0.97295 -2.07918,1.74598 -3.39867,2.31909 -1.30615,0.55978 -2.73891,0.83967 -4.2983,0.83967 -0.87965,0 -1.69932,-0.0866 -2.45903,-0.2599 -0.7597,-0.15994 -1.49274,-0.39317 -2.19913,-0.69972 v 9.82015 h 3.95844 v 5.47783 h -13.51466 v -5.47783 h 3.39866 v -24.45438 h -2.23912 z m 12.61502,4.89807 c -0.83967,0 -1.62602,0.21991 -2.35907,0.65974 -0.73305,0.43983 -1.35281,1.05957 -1.85927,1.85926 v 5.8377 c 0.4265,0.67972 1.00627,1.23283 1.73931,1.65934 0.73305,0.4265 1.55939,0.63974 2.47903,0.63974 0.67973,0 1.32614,-0.12662 1.93923,-0.37984 0.6131,-0.26657 1.14622,-0.63309 1.59937,-1.09957 0.45316,-0.47981 0.81301,-1.03958 1.07958,-1.67933 0.26655,-0.65309 0.39983,-1.35947 0.39983,-2.11917 0,-0.83967 -0.13328,-1.59271 -0.39983,-2.25911 -0.25324,-0.6664 -0.60643,-1.22617 -1.05959,-1.67933 -0.45315,-0.46648 -0.98627,-0.81969 -1.59937,-1.05959 -0.61309,-0.25322 -1.26616,-0.37984 -1.95922,-0.37984 z" />
    </g>
    <g
       id="g91585"
       transform="rotate(-90,105.39683,119.07099)">
      <ellipse
         ry="1.768328"
         rx="7.5312347"
         cy="-105.19225"
         cx="115.70055"
         id="path2624"
         style="fill:#ffd8aa;fill-opacity:1;stroke:#000000;stroke-width:0.197471;stroke-miterlimit:4;stroke-dasharray:none;stroke-dashoffset:0;stroke-opacity:1"
         transform="rotate(90)" />
      <path
         inkscape:transform-center-y="-57.473372"
         inkscape:transform-center-x="5.2607205"
         style="fill:#008000;fill-opacity:1;stroke:none;stroke-width:0.194437;stroke-miterlimit:4;stroke-dasharray:none"
         d="m 115.61998,118.71836 c 0.32654,0.98741 0.15104,0.98559 -0.54101,-0.006 -0.78279,-1.11007 -1.56862,-1.65743 -1.81644,-1.26273 -0.32944,0.52649 -0.42007,1.89984 -0.18133,2.65209 0.41409,1.28755 2.17611,3.22583 3.33912,3.67224 0.61653,0.23569 1.65923,-3.23842 1.42956,-4.77468 -0.27218,-1.84577 -1.20894,-2.83949 -2.55991,-2.71437 -0.58031,0.0544 -3.85409,-0.74681 -3.85409,-0.94628 0,-0.19959 1.83153,-0.66011 2.40882,-0.6063 1.82847,0.1693 3.02654,-2.0407 2.47525,-4.56306 -0.2419,-1.12338 -0.97015,-3.02392 -1.15148,-3.02285 -0.27218,7.3e-4 -1.33285,0.76433 -2.04917,1.46855 -0.82508,0.81116 -1.67736,2.44175 -1.68038,3.21246 -9.1e-4,0.59994 0.36266,1.95062 0.52285,1.95062 0.30211,0 1.42957,-1.03483 1.81643,-1.6641 0.52283,-0.84383 0.70421,-0.75832 0.39291,0.18425 -0.48662,1.47129 -2.35457,2.42683 -4.80688,2.54289 -2.10021,-0.16715 -3.66373,0.14228 -4.45445,-0.19272 -0.28788,-0.12197 -0.46214,1.96731 0.10285,1.81833 5.99332,-1.58018 10.07972,0.86717 10.60719,2.25158 z"
         id="path460-9-8"
         inkscape:connector-curvature="0"
         sodipodi:nodetypes="cccscccscccccscccsscc"
         inkscape:export-xdpi="500.19107"
         inkscape:export-ydpi="500.19107" />
      <path
         sodipodi:nodetypes="cscc"
         inkscape:connector-curvature="0"
         id="path2753"
         d="m 104.35698,109.14454 c 0.10522,0.22561 -0.56424,0.82286 -0.34543,0.94953 0.80642,0.46683 1.39965,2.28201 1.59421,3.8375 0,0 0.18621,-3.43376 -1.24878,-4.78703 z"
         style="fill:#483737;fill-opacity:1;stroke:none;stroke-width:0.274878px;stroke-linecap:butt;stroke-linejoin:miter;stroke-opacity:1" />
      <path
         style="fill:#483737;fill-opacity:1;stroke:none;stroke-width:0.274878px;stroke-linecap:butt;stroke-linejoin:miter;stroke-opacity:1"
         d="m 104.37763,122.40009 c 0.10521,-0.22561 -0.56425,-0.82285 -0.34544,-0.94952 0.80642,-0.46684 1.39965,-2.28201 1.59421,-3.8375 0,0 0.18621,3.43376 -1.24877,4.78702 z"
         id="path2223"
         inkscape:connector-curvature="0"
         sodipodi:nodetypes="cscc" />
    </g>
  </g>
</svg>
