<?xml version="1.0" encoding="UTF-8"?>
<!-- Created with Inkscape (http://www.inkscape.org/) -->
<svg width="83.458mm" height="16.714mm" version="1.1" viewBox="0 0 83.458 16.714" xmlns="http://www.w3.org/2000/svg">
 <g transform="translate(-28.411 -125.23)">
  <path d="m32.019 125.33h69.1c2.7342 3.5561 1.8701 14.522 0.0245 16.427h-69.124c-4.9475-0.39707-4.6695-16.041 0-16.427z" fill="#483737"/>
  <g transform="matrix(.30339 0 0 .30339 11.722 22.692)" aria-label="earthcup.io">
   <g fill="#ffd8aa" stroke-width="1.0236">
    <path d="m88.295 366.5 0.05997 0.61975q0.21991 0.89964 0.73971 1.5794 0.53979 0.67973 1.2595 1.1396t1.5994 0.69972q0.87965 0.21992 1.7793 0.21992 0.89964 0 1.6993-0.10001 0.81968-0.11995 1.5794-0.29988 0.7597-0.19992 1.4794-0.43983 0.71972-0.25989 1.4594-0.53978l2.1991 4.0984q-1.1396 0.69972-2.0992 1.1995-0.93963 0.47981-1.8993 0.79968-0.95962 0.31987-2.0392 0.45982-1.0796 0.15994-2.519 0.15994-2.6989 0-4.7981-0.87966-2.0992-0.89964-3.5386-2.419-1.4194-1.5194-2.1791-3.5586-0.73971-2.0392-0.73971-4.3183t0.77969-4.2783q0.79968-1.9992 2.2391-3.4786 1.4394-1.4994 3.4386-2.3591 1.9992-0.85967 4.4382-0.85967 2.439 0 4.3183 0.81969 1.8992 0.79968 3.1987 2.2391 1.2995 1.4194 1.9992 3.3587 0.69971 1.9192 0.7597 4.1384 0.06 0.49981 0.06 0.99961 0.02 0.47981-0.02 0.99961zm4.7781-7.557q-1.1196 0-1.9192 0.27989-0.77969 0.2599-1.3195 0.73971-0.53979 0.45982-0.85966 1.0596t-0.4998 1.2595h8.6566q-0.13994-0.67974-0.39984-1.2795t-0.71972-1.0596q-0.45982-0.45982-1.1795-0.71972-0.69972-0.27989-1.7593-0.27989z"/>
    <path d="m118.56 374.44q-0.69972 0.43982-1.2795 0.75969-0.57978 0.29988-1.1595 0.47981-0.57978 0.19993-1.1995 0.27989-0.61976 0.10001-1.3595 0.10001-1.8593 0-3.3387-0.4998-1.4594-0.51981-2.479-1.3994-0.9996-0.89965-1.5394-2.0992-0.53979-1.2195-0.53979-2.639 0-1.4394 0.53979-2.6589 0.55978-1.2195 1.5994-2.0792 1.0396-0.87966 2.539-1.3595 1.5194-0.4998 3.4586-0.4998 1.4194 0 2.579 0.15994 1.1795 0.13994 2.1791 0.35985v-0.63974q0-0.7797-0.29988-1.3395-0.29989-0.57978-0.83967-0.93963-0.53979-0.37985-1.2995-0.53978-0.75971-0.17994-1.6594-0.17994-1.8792 0-3.3187 0.37985-1.4194 0.35986-2.7389 1.0596l-1.9192-3.8785q2.0392-1.3994 4.2583-2.1392 2.2391-0.73971 4.7381-0.73971 1.9392 0 3.5786 0.43983 1.6593 0.41984 2.8389 1.3994 1.1795 0.95962 1.8393 2.519 0.67974 1.5594 0.67974 3.7985v7.537h2.7789v5.4778h-8.6366zm-4.5582-3.0988q1.4194 0 2.579-0.45982 1.1595-0.45982 1.9792-1.1196v-2.639h-4.7981q-0.45982 0-0.89965 0.13995-0.43982 0.13995-0.79969 0.39984-0.33986 0.2599-0.55977 0.63974-0.19992 0.37986-0.19992 0.87966 0 0.91963 0.65974 1.5394 0.67973 0.61975 2.0392 0.61975z"/>
    <path d="m149.36 362.38h-5.6178v-2.1392q-0.81969 0-1.4994 0.11996-0.67973 0.0999-1.1995 0.35985-0.4998 0.25989-0.85967 0.71971-0.33986 0.45982-0.47981 1.1396v7.497h4.2183v5.4778h-13.515v-5.4778h3.0988v-9.7562h-3.0588v-5.4778h9.2164v1.4594q0.87966-0.69972 1.9792-1.0796t2.399-0.37985q1.3195 0 2.7189 0.02 1.3994 0.02 2.599 0.02z"/>
    <path d="m159.77 354.84h4.1384v5.2379h-4.1784l-0.04 8.7566q0 0.75969 0.11995 1.2395 0.11995 0.45982 0.33986 0.73971 0.23991 0.27989 0.55979 0.37985 0.31987 0.1 0.73971 0.1 0.75969 0 1.3395-0.13994 0.57977-0.15994 1.1595-0.35986l0.85966 3.8585q-1.0196 0.63974-2.2791 1.0196-1.2395 0.37986-2.9588 0.37986-1.2195 0-2.3391-0.41984-1.0996-0.41984-1.9392-1.2595-0.83967-0.85965-1.3395-2.1392-0.4998-1.2795-0.47981-2.9788l0.06-9.1764h-2.9788v-5.2379h2.9988l0.04-4.958 6.2176-2.9588z"/>
    <path d="m166.64 344.45h9.3363v12.315q1.1795-1.0796 2.579-1.6793 1.4194-0.61976 3.1188-0.61976 3.7385 0 5.7178 2.0992 1.9792 2.0792 1.9792 6.0976v7.4171h3.0388v5.4778h-9.2563v-11.495q0-1.7393-0.85966-2.7389-0.85967-0.99962-2.2191-0.99962-0.89964 0-1.9592 0.4998-1.0596 0.49982-2.1392 1.4594v7.7969h3.0388v5.4778h-12.375v-5.4778h3.1987v-20.152h-3.1987z"/>
    <path d="m209.51 362q-0.85967-1.0796-1.9192-1.6194-1.0596-0.55979-2.499-0.47981-1.1595-0.0799-2.1192 0.31987-0.93963 0.39984-1.6394 1.1196-0.67974 0.71971-1.0596 1.7193-0.37985 0.97962-0.37985 2.2191 0 1.0996 0.39984 2.0792 0.39984 0.97962 1.0796 1.6993 0.69972 0.69972 1.6394 1.0996 0.95962 0.39984 2.0792 0.47981 0.93963-0.0799 1.6993-0.37985 0.77969-0.31988 1.3794-0.79969 0.59977-0.4998 1.0196-1.0996 0.43982-0.61976 0.67973-1.1596l5.4978 1.5194q-0.33986 1.1995-1.1795 2.499-0.81967 1.2995-2.1592 2.3791-1.3195 1.0596-3.1588 1.7593-1.8193 0.69973-4.1584 0.69973-2.3791 0-4.3783-0.85967-1.9992-0.87965-3.4386-2.3791t-2.2591-3.5186q-0.79969-2.0192-0.79969-4.3383 0-2.2991 0.81968-4.2583 0.83966-1.9792 2.2991-3.4386 1.4594-1.4794 3.4586-2.2991 2.0192-0.81967 4.3783-0.73971 1.6793-0.0799 3.2587 0.37986 1.5794 0.45981 2.9988 1.3794h3.9784v6.0176z"/>
    <path d="m229.6 354.84h9.7961v15.234h2.499v5.4778h-8.7765v-1.7593q-1.0596 0.95962-2.479 1.4794t-3.2787 0.51979q-1.7193 0-3.2387-0.53978-1.5194-0.53979-2.659-1.6194-1.1196-1.0996-1.7793-2.7389-0.63974-1.6394-0.63974-3.8585v-6.7174h-2.6989v-5.4778h9.1564v12.195q0 2.0792 1.0596 3.1188 1.0596 1.0196 2.7589 1.0196 1.1995 0 2.1791-0.7397 0.97961-0.73972 1.4194-1.9992v-8.1168h-3.3187z"/>
    <path d="m244.9 354.84h9.0364v0.29988c0.63974-0.27989 1.2928-0.4998 1.9592-0.65974 0.6664-0.17326 1.3528-0.2599 2.0592-0.2599 1.5194 0 2.9322 0.28656 4.2383 0.85967 1.3062 0.5731 2.439 1.3528 3.3987 2.3391 0.95962 0.98627 1.706 2.1392 2.2391 3.4586 0.54645 1.3195 0.81968 2.7189 0.81968 4.1983 0 1.4927-0.26657 2.8988-0.79969 4.2183-0.51979 1.3195-1.2528 2.4724-2.1991 3.4586-0.9463 0.97295-2.0792 1.746-3.3987 2.3191-1.3062 0.55978-2.7389 0.83967-4.2983 0.83967-0.87965 0-1.6993-0.0866-2.459-0.2599-0.7597-0.15994-1.4927-0.39317-2.1991-0.69972v9.8202h3.9584v5.4778h-13.515v-5.4778h3.3987v-24.454h-2.2391zm12.615 4.8981c-0.83967 0-1.626 0.21991-2.3591 0.65974s-1.3528 1.0596-1.8593 1.8593v5.8377c0.4265 0.67972 1.0063 1.2328 1.7393 1.6593 0.73305 0.4265 1.5594 0.63974 2.479 0.63974 0.67973 0 1.3261-0.12662 1.9392-0.37984 0.6131-0.26657 1.1462-0.63309 1.5994-1.0996 0.45316-0.47981 0.81301-1.0396 1.0796-1.6793 0.26655-0.65309 0.39983-1.3595 0.39983-2.1192 0-0.83967-0.13328-1.5927-0.39983-2.2591-0.25324-0.6664-0.60643-1.2262-1.0596-1.6793-0.45315-0.46648-0.98627-0.81969-1.5994-1.0596-0.61309-0.25322-1.2662-0.37984-1.9592-0.37984z"/>
   </g>
   <path d="m73.473 338.34c-11.931 7.3219-9.6337 51.019 0 54.306" fill="none" stroke="#ffd8aa" stroke-width=".87209px"/>
  </g>
  <ellipse transform="rotate(90)" cx="133.5" cy="-100.65" rx="7.7309" ry="1.7671" fill="#ffd8aa" stroke-width="0"/>
  <path d="m109.77 136.42c0.30321 0.91687 0.14025 0.91518-0.50236-6e-3 -0.72687-1.0308-1.4566-1.539-1.6867-1.1725-0.3059 0.48887-0.39006 1.7641-0.16837 2.4626 0.3845 1.1956 2.0206 2.9954 3.1006 3.4099 0.57249 0.21885 1.5407-3.0071 1.3274-4.4336-0.25273-1.7139-1.1226-2.6366-2.377-2.5205-0.53885 0.0505-3.5788-0.69346-3.5788-0.87868 0-0.18533 1.7007-0.61295 2.2367-0.56298 1.6978 0.1572 2.8103-1.8949 2.2984-4.2371-0.22462-1.0431-0.90084-2.8079-1.0692-2.8069-0.25273 6.8e-4 -1.2376 0.70973-1.9028 1.3636-0.76613 0.75321-1.5575 2.2673-1.5603 2.983-8.5e-4 0.55708 0.33675 1.8113 0.4855 1.8113 0.28052 0 1.3274-0.9609 1.6867-1.5452 0.48548-0.78354 0.6539-0.70414 0.36484 0.17109-0.45185 1.3662-2.1864 2.2535-4.4635 2.3612-1.9502-0.15521-3.402 0.13211-4.1362-0.17895-0.26732-0.11326-0.42913 1.8268 0.0955 1.6884 5.5652-1.4673 9.3596 0.80522 9.8494 2.0907z" fill="#008000"/>
  <path d="m99.506 126.74c0.10522 0.22561-0.56424 0.82286-0.34543 0.94953 0.80642 0.46683 1.3997 2.282 1.5942 3.8375 0 0 0.18621-3.4338-1.2488-4.787z" fill="#483737"/>
  <path d="m99.378 140.81c0.10521-0.22561-0.56425-0.82285-0.34544-0.94952 0.80642-0.46684 1.3997-2.282 1.5942-3.8375 0 0 0.18621 3.4338-1.2488 4.787z" fill="#483737"/>
 </g>
</svg>
