<?xml version="1.0" encoding="UTF-8" standalone="no"?>
<!-- Created with Inkscape (http://www.inkscape.org/) -->

<svg
   width="44.32473mm"
   height="43.452732mm"
   viewBox="0 0 44.32473 43.452732"
   version="1.1"
   id="svg1258"
   inkscape:export-filename="/home/russs/Documents/Russs Files/Repositories/earthcup/earthcup/icons/master-favicon.png"
   inkscape:export-xdpi="572.85236"
   inkscape:export-ydpi="572.85236"
   inkscape:version="1.1.2 (0a00cf5339, 2022-02-04)"
   sodipodi:docname="Favicon-earthcup.svg"
   xmlns:inkscape="http://www.inkscape.org/namespaces/inkscape"
   xmlns:sodipodi="http://sodipodi.sourceforge.net/DTD/sodipodi-0.dtd"
   xmlns="http://www.w3.org/2000/svg"
   xmlns:svg="http://www.w3.org/2000/svg">
  <sodipodi:namedview
     id="namedview1260"
     pagecolor="#ffffff"
     bordercolor="#666666"
     borderopacity="1.0"
     inkscape:pageshadow="2"
     inkscape:pageopacity="0.0"
     inkscape:pagecheckerboard="0"
     inkscape:document-units="mm"
     showgrid="false"
     inkscape:zoom="0.7198092"
     inkscape:cx="159.76456"
     inkscape:cy="299.38489"
     inkscape:window-width="1920"
     inkscape:window-height="1016"
     inkscape:window-x="0"
     inkscape:window-y="0"
     inkscape:window-maximized="1"
     inkscape:current-layer="layer1" />
  <defs
     id="defs1255" />
  <g
     inkscape:label="Layer 1"
     inkscape:groupmode="layer"
     id="layer1"
     transform="translate(-62.751656,-68.966116)">
    <path
       inkscape:transform-center-y="-55.510693"
       inkscape:transform-center-x="5.0812706"
       style="fill:#008000;fill-opacity:1;stroke:none;stroke-width:0.187797;stroke-miterlimit:4;stroke-dasharray:none"
       d="m 86.250716,84.126006 c 0.95369,-0.31539 0.95193,-0.14588 -0.006,0.52254 -1.07216,0.75605 -1.60083,1.51505 -1.21961,1.75441 0.50851,0.31819 1.83496,0.40572 2.56152,0.17513 1.24359,-0.39995 3.11568,-2.10179 3.54684,-3.22509 0.22764,-0.59547 -3.12783,-1.60257 -4.61163,-1.38074 -1.78274,0.26289 -2.74252,1.16766 -2.62167,2.47249 0.0525,0.56049 -0.72131,3.72248 -0.91397,3.72248 -0.19277,0 -0.63757,-1.76899 -0.58559,-2.32656 0.16351,-1.76603 -1.97102,-2.92319 -4.40724,-2.39072 -1.08502,0.23363 -2.92065,0.93702 -2.91962,1.11215 7.1e-4,0.26289 0.73823,1.28734 1.4184,1.97919 0.78346,0.79691 2.35837,1.62008 3.10276,1.623 0.57945,8.8e-4 1.884,-0.35027 1.884,-0.50499 0,-0.2918 -0.99949,-1.38076 -1.60727,-1.7544 -0.81501,-0.50498 -0.73242,-0.68017 0.17796,-0.3795 1.42105,0.47001 2.34396,2.27417 2.45605,4.64273 -0.16144,2.02849 0.13742,3.53862 -0.18614,4.30234 -0.1178,0.27804 1.90013,0.44635 1.75624,-0.0993 -1.52622,-5.78865 0.83756,-9.73551 2.17469,-10.24496 z"
       id="path460-9-8"
       inkscape:connector-curvature="0"
       sodipodi:nodetypes="cccscccscccccscccsscc"
       inkscape:export-xdpi="500.19107"
       inkscape:export-ydpi="500.19107" />
    <circle
       style="fill:#ffd8aa;fill-opacity:1;stroke:none;stroke-width:0.555001;stop-color:#000000"
       id="path1732"
       cx="84.696426"
       cy="90.692482"
       r="21.726366" />
    <path
       inkscape:transform-center-y="-153.10398"
       inkscape:transform-center-x="14.014648"
       style="fill:#008000;fill-opacity:1;stroke:none;stroke-width:0.517963;stroke-miterlimit:4;stroke-dasharray:none"
       d="m 93.578846,79.378146 c 2.630371,-0.869876 2.625516,-0.402351 -0.01655,1.441216 -2.957123,2.085262 -4.415247,4.178659 -3.363804,4.838838 1.40252,0.877598 5.061,1.119015 7.064925,0.483025 3.429943,-1.103101 8.593373,-5.796945 9.782553,-8.895117 0.62785,-1.642365 -8.626882,-4.420046 -12.719348,-3.808218 -4.916974,0.725078 -7.564143,3.220522 -7.230826,6.819372 0.144801,1.545888 -1.989445,10.266968 -2.520819,10.266968 -0.531679,0 -1.758481,-4.87905 -1.615115,-6.416882 0.450977,-4.870885 -5.436269,-8.062447 -12.155604,-6.593843 -2.992592,0.644375 -8.055442,2.584395 -8.052601,3.06742 0.002,0.725077 2.036111,3.550611 3.912088,5.458802 2.16086,2.197957 6.504618,4.46834 8.557719,4.476394 1.59818,0.0024 5.196258,-0.966079 5.196258,-1.392812 0,-0.804814 -2.756692,-3.808273 -4.43301,-4.838808 -2.247878,-1.392786 -2.020087,-1.875977 0.490831,-1.046699 3.919397,1.296334 6.464873,6.272385 6.774029,12.805108 -0.445267,5.59479 0.379018,9.7599 -0.513392,11.86632 -0.324905,0.76686 5.240746,1.23108 4.843883,-0.27388 -4.209466,-15.965709 2.310073,-26.851539 5.99801,-28.256653 z"
       id="path460-9-8-3"
       inkscape:connector-curvature="0"
       sodipodi:nodetypes="cccscccscccccscccsscc"
       inkscape:export-xdpi="500.19107"
       inkscape:export-ydpi="500.19107" />
  </g>
</svg>
