<?xml version="1.0" encoding="UTF-8" standalone="no"?>
<svg
   xmlns:dc="http://purl.org/dc/elements/1.1/"
   xmlns:cc="http://creativecommons.org/ns#"
   xmlns:rdf="http://www.w3.org/1999/02/22-rdf-syntax-ns#"
   xmlns:svg="http://www.w3.org/2000/svg"
   xmlns="http://www.w3.org/2000/svg"
   xmlns:sodipodi="http://sodipodi.sourceforge.net/DTD/sodipodi-0.dtd"
   xmlns:inkscape="http://www.inkscape.org/namespaces/inkscape"
   width="16.437418mm"
   height="83.441559mm"
   viewBox="0 0 16.437418 83.441559"
   version="1.1"
   id="svg11276"
   inkscape:version="1.0 (6e3e5246a0, 2020-05-07)"
   sodipodi:docname="earthcup-2-1-logo.svg">
  <defs
     id="defs11270" />
  <sodipodi:namedview
     id="base"
     pagecolor="#ffffff"
     bordercolor="#666666"
     borderopacity="1.0"
     inkscape:pageopacity="0.0"
     inkscape:pageshadow="2"
     inkscape:zoom="1.4"
     inkscape:cx="16.083667"
     inkscape:cy="176.8231"
     inkscape:document-units="mm"
     inkscape:current-layer="layer1"
     inkscape:document-rotation="0"
     showgrid="false"
     inkscape:window-width="1848"
     inkscape:window-height="1009"
     inkscape:window-x="72"
     inkscape:window-y="34"
     inkscape:window-maximized="1" />
  <metadata
     id="metadata11273">
    <rdf:RDF>
      <cc:Work
         rdf:about="">
        <dc:format>image/svg+xml</dc:format>
        <dc:type
           rdf:resource="http://purl.org/dc/dcmitype/StillImage" />
        <dc:title />
      </cc:Work>
    </rdf:RDF>
  </metadata>
  <g
     inkscape:label="Layer 1"
     inkscape:groupmode="layer"
     id="layer1"
     transform="translate(-137.20372,-128.79443)">
    <path
       style="fill:#483737;fill-opacity:1;stroke-width:0.0167215"
       d="m 144.76902,212.22683 c -2.17368,-0.10277 -4.06961,-0.50886 -5.41894,-1.16068 -1.28515,-0.62082 -1.9986,-1.39972 -2.13025,-2.32567 -0.009,-0.0644 -0.0164,-0.27131 -0.0161,-0.45984 l 5.2e-4,-0.34279 0.0702,0.0836 c 0.48839,0.58152 1.16215,1.01935 2.13532,1.38765 1.16713,0.44168 2.55691,0.70665 4.40614,0.84003 0.57846,0.0417 2.46132,0.0415 3.05167,-5.3e-4 0.9155,-0.0649 1.62283,-0.14471 2.3243,-0.26211 1.78074,-0.29806 3.14261,-0.77057 3.92515,-1.36188 0.15261,-0.11532 0.40139,-0.35536 0.48661,-0.46951 l 0.0375,-0.0502 -0.007,0.35951 c -0.006,0.32568 -0.011,0.37589 -0.0525,0.53351 -0.0836,0.31784 -0.20743,0.57996 -0.40762,0.86268 -0.13285,0.18761 -0.49333,0.54403 -0.72451,0.71635 -1.19518,0.89088 -3.1531,1.4592 -5.59895,1.62521 -0.44697,0.0303 -1.65719,0.0446 -2.08183,0.0245 z m -0.58525,-2.22422 c -1.21161,-0.0632 -2.3219,-0.20675 -3.25234,-0.42042 -1.36694,-0.31392 -2.40651,-0.76806 -3.06946,-1.34089 -0.19905,-0.172 -0.30877,-0.29069 -0.4477,-0.48433 l -0.09,-0.12551 -0.0483,0.0318 c -0.0266,0.0175 -0.054,0.0319 -0.0609,0.032 -0.007,0 -0.0107,-15.33674 -0.008,-34.08179 l 0.004,-34.08191 0.1898,-0.12952 c 1.38304,-0.94385 3.7622,-1.49467 6.89382,-1.59605 l 0.34482,-0.0112 0.0105,-0.1005 c 0.006,-0.0553 0.0104,-0.16524 0.0103,-0.24436 -9e-5,-0.0791 0.009,-0.29229 0.0193,-0.47369 0.0151,-0.25575 0.0149,-0.38533 -9.5e-4,-0.5769 -0.12484,-1.51037 -0.5788,-2.72469 -1.30318,-3.48588 -0.32159,-0.33795 -0.66155,-0.55517 -1.08948,-0.69615 -0.43521,-0.14338 -0.71861,-0.16058 -0.65391,-0.0397 0.0346,0.0646 0.21475,0.2114 0.4488,0.36567 0.28838,0.19009 0.4672,0.33159 0.72608,0.57457 0.45575,0.42774 0.90036,0.99525 0.90036,1.14923 0,0.0825 -0.22348,0.18464 -0.66886,0.30572 -0.55647,0.15128 -1.02782,0.2186 -1.28756,0.1839 -0.78779,-0.10524 -2.12432,-0.83417 -2.82874,-1.54275 -0.51331,-0.51635 -1.08927,-1.26817 -1.2944,-1.68963 -0.0949,-0.19498 -0.0953,-0.23063 -0.003,-0.29803 0.3288,-0.23997 1.76918,-0.76721 2.64001,-0.96634 1.11545,-0.25508 2.19174,-0.16944 3.03277,0.2413 0.68419,0.33415 1.13179,0.85393 1.26607,1.47028 0.0268,0.12306 0.0327,0.2121 0.0318,0.48331 -6.9e-4,0.20746 0.008,0.4052 0.0243,0.52594 0.0731,0.55802 0.26653,1.31335 0.41858,1.63496 0.0617,0.13048 0.093,0.16598 0.13296,0.15065 0.11505,-0.0442 0.47412,-1.28611 0.71608,-2.47679 0.12677,-0.62383 0.14822,-0.79331 0.14601,-1.15356 -0.002,-0.36163 0.0225,-0.55045 0.10193,-0.7776 0.0969,-0.27714 0.24458,-0.4993 0.48241,-0.72563 0.40854,-0.38878 1.01823,-0.65472 1.83018,-0.79831 0.281,-0.0497 0.83755,-0.0537 1.21231,-0.009 1.14988,0.13791 2.42899,0.51614 3.01824,0.89247 0.13066,0.0834 0.26622,0.20701 0.30229,0.27554 0.0391,0.0743 0.0279,0.12975 -0.0657,0.32272 -0.48792,1.00629 -2.014,2.39631 -3.13094,2.8518 -0.20141,0.0821 -0.35366,0.12325 -0.5984,0.16162 -0.259,0.0406 -0.92296,0.0401 -1.20598,-9.2e-4 -0.43268,-0.0627 -0.81637,-0.19223 -0.91431,-0.30863 -0.0847,-0.1007 -0.0819,-0.22463 0.009,-0.41491 0.16235,-0.338 0.58357,-0.75458 1.25087,-1.23707 0.33443,-0.24182 0.48272,-0.36124 0.58617,-0.47207 0.0839,-0.0899 0.0876,-0.0978 0.0641,-0.13507 -0.0367,-0.058 -0.53283,0.0528 -0.78244,0.17476 -0.5149,0.25152 -1.11807,0.992 -1.55213,1.90544 -0.47875,1.00753 -0.7696,2.1542 -0.88007,3.46972 -0.0209,0.24876 -0.0321,1.45886 -0.0137,1.47729 0.005,0.005 0.21918,0.0168 0.47656,0.0269 3.3848,0.13233 6.26058,0.76252 7.30289,1.60033 l 0.11287,0.0907 v 34.08724 c 0,33.53834 -5e-4,34.08707 -0.0319,34.0771 -0.026,-0.008 -0.0396,0.007 -0.0737,0.0811 -0.17975,0.39262 -0.57654,0.72837 -1.25718,1.06376 -1.22997,0.60607 -3.04539,0.99914 -5.37597,1.164 -0.43268,0.0306 -2.27267,0.0462 -2.71725,0.0229 z m 1.32936,-5.01707 c 1.13369,-0.10351 2.00933,-0.70384 2.43316,-1.66816 0.19645,-0.44698 0.27076,-0.88446 0.25451,-1.49825 -0.0199,-0.75306 -0.15531,-1.22043 -0.54768,-1.8909 -0.0484,-0.0828 -0.10015,-0.17114 -0.11492,-0.19637 -0.0148,-0.0252 -0.0323,-0.0459 -0.0391,-0.046 -0.0148,-1.7e-4 -1.0701,0.5658 -1.08546,0.58208 -0.006,0.006 0.0223,0.098 0.0627,0.20372 0.21374,0.55913 0.3021,1.02552 0.28632,1.51129 -0.0104,0.31925 -0.0449,0.4768 -0.15449,0.70524 -0.18973,0.39542 -0.51836,0.65616 -0.88469,0.70193 l -0.0934,0.0117 v -2.05031 -2.05032 l -0.20484,1.7e-4 c -1.11641,7.9e-4 -1.88655,0.27338 -2.46289,0.87138 -0.3969,0.41182 -0.63024,0.94341 -0.69216,1.57688 -0.0837,0.85636 0.16241,1.66638 0.68939,2.26886 0.24902,0.28469 0.52171,0.49278 0.87294,0.66617 0.52157,0.25747 1.07363,0.35632 1.68051,0.30091 z m -1.1287,-1.67004 c -0.33763,-0.1205 -0.57414,-0.33548 -0.68761,-0.62501 -0.0738,-0.18819 -0.0946,-0.3406 -0.086,-0.6282 0.007,-0.24296 0.0116,-0.27142 0.0617,-0.40652 0.0296,-0.0799 0.0829,-0.1858 0.11835,-0.23532 0.11663,-0.16288 0.32196,-0.29066 0.58107,-0.36162 l 0.12123,-0.0332 v 1.16108 c 0,0.6386 -0.006,1.16053 -0.0125,1.15986 -0.007,-7.9e-4 -0.0502,-0.0147 -0.0961,-0.0311 z m 2.46841,-4.58812 c 0.48311,-0.12574 0.84856,-0.42512 1.08441,-0.88835 0.1655,-0.32506 0.23184,-0.60825 0.24621,-1.05102 0.0176,-0.54156 -0.0589,-0.85723 -0.31014,-1.28 -0.0565,-0.0951 -0.10278,-0.17601 -0.10278,-0.17975 0,-0.004 0.064,-0.007 0.14213,-0.007 h 0.14213 v -1.16215 -1.16214 h -0.73574 -0.73575 v 0.37534 0.37533 l -1.22485,0.006 c -1.1634,0.006 -1.23286,0.008 -1.3843,0.0411 -0.44018,0.0957 -0.7655,0.26714 -1.0278,0.5417 -0.29064,0.30421 -0.44861,0.66737 -0.53802,1.23684 -0.0415,0.26433 -0.0414,0.8805 1e-4,1.15218 0.0938,0.61316 0.29133,1.1349 0.64048,1.69154 l 0.0908,0.14481 0.51365,-0.25085 c 0.2825,-0.13796 0.51646,-0.25359 0.51989,-0.25695 0.003,-0.003 -0.0285,-0.0839 -0.0709,-0.17895 -0.22176,-0.49687 -0.30374,-0.91333 -0.29048,-1.47567 0.006,-0.25612 0.0145,-0.34364 0.0436,-0.45148 0.0485,-0.17964 0.10553,-0.29167 0.20257,-0.39785 0.14439,-0.15799 0.32158,-0.22867 0.5741,-0.22901 0.13264,-1.9e-4 0.14657,0.003 0.13873,0.0291 -0.0138,0.0464 -0.0569,0.2958 -0.0888,0.51419 -0.0225,0.15377 -0.0294,0.31201 -0.0297,0.67722 -3.7e-4,0.42803 0.003,0.4953 0.0369,0.66055 0.0939,0.46285 0.26131,0.80924 0.52532,1.08717 0.32503,0.34217 0.72839,0.49978 1.24327,0.48577 0.18035,-0.005 0.27104,-0.016 0.39494,-0.0482 z m -0.67921,-1.48675 c -0.13987,-0.0499 -0.25354,-0.17039 -0.32974,-0.34963 -0.0375,-0.0882 -0.0382,-0.10232 -0.0431,-0.82962 l -0.005,-0.73993 h 0.35687 0.35687 l 0.08,0.12087 c 0.2215,0.33446 0.32818,0.68315 0.32818,1.07268 0,0.39778 -0.11292,0.61737 -0.36713,0.71396 -0.0944,0.0359 -0.29194,0.042 -0.37698,0.0117 z m 1.86445,-6.55104 v -1.82265 h -0.73575 -0.73574 v 0.56902 0.56901 l -1.04928,-0.005 -1.04928,-0.005 -0.11018,-0.0539 c -0.13572,-0.0664 -0.25099,-0.18557 -0.31629,-0.32694 -0.094,-0.20344 -0.10118,-0.27717 -0.12271,-1.25251 -0.0109,-0.49369 -0.0235,-0.90135 -0.0281,-0.90589 -0.008,-0.008 -1.3891,-0.0482 -1.3971,-0.0402 -0.002,0.002 -0.01,0.33926 -0.0162,0.74849 -0.0124,0.78468 -0.004,0.95005 0.0603,1.19559 0.0456,0.17428 0.13109,0.36749 0.22591,0.51087 0.0453,0.0685 0.0849,0.13015 0.0879,0.13705 0.003,0.007 -0.0816,0.0125 -0.1881,0.0125 h -0.19369 v 1.23739 1.2374 h 0.73575 0.73575 v -0.40968 -0.40968 h 1.31264 1.31264 v 0.41804 0.41804 h 0.73574 0.73575 z m -4.13022,-4.16603 v -0.40369 l 1.31682,0.0118 c 1.46018,0.013 1.55748,0.008 1.85756,-0.0897 0.68756,-0.22469 1.08517,-0.74583 1.11698,-1.46402 0.009,-0.20009 7.2e-4,-0.31479 -0.0799,-1.12453 l -0.0387,-0.38877 h -0.6752 c -0.63641,0 -0.67453,0.002 -0.66339,0.0293 0.0195,0.0484 0.10305,0.38559 0.14056,0.56757 0.0387,0.18789 0.0463,0.43498 0.0161,0.5252 -0.0487,0.14528 -0.176,0.23069 -0.39385,0.26412 -0.13687,0.021 -0.9004,0.0239 -1.91703,0.007 l -0.67997,-0.0111 v -0.55745 -0.55746 h -0.7023 -0.7023 v 0.55709 0.55708 l -1.06395,-0.007 c -0.71607,-0.005 -1.06189,-0.002 -1.05764,0.01 0.003,0.009 0.1825,0.38657 0.39783,0.83829 l 0.39152,0.82131 h 0.478 c 0.2629,0 0.56265,0.005 0.66612,0.0109 l 0.18812,0.0109 v 0.39876 0.39876 h 0.7023 0.7023 v -0.40369 z m -2.72561,-4.39665 v -0.43602 l 2.56258,0.0116 c 1.40941,0.006 2.56755,0.0164 2.57364,0.0222 0.0363,0.0345 0.16089,0.37805 0.21256,0.58594 l 0.0606,0.24395 0.73993,0.004 0.73992,0.004 v -1.66397 -1.66397 h -0.73574 -0.73575 v 0.40132 0.40132 h -1.05301 -1.05302 l -0.12499,-0.16211 c -0.14989,-0.19438 -0.29463,-0.46584 -0.34604,-0.64898 -0.14133,-0.50352 0.0946,-0.92373 0.59849,-1.06593 0.13035,-0.0368 0.13701,-0.037 1.79045,-0.0421 l 1.65961,-0.005 v -1.24531 -1.24532 l -0.73156,0.004 -0.73157,0.004 -0.004,0.4055 -0.004,0.40549 h -1.03401 c -1.06887,0 -1.35171,0.0117 -1.62586,0.0674 -0.84324,0.17117 -1.35504,0.68997 -1.49808,1.51857 -0.0402,0.23286 -0.04,0.71594 4e-4,0.90557 0.0776,0.36452 0.24467,0.70828 0.4875,1.00329 l 0.0757,0.092 -1.64717,0.004 -1.64717,0.004 v 1.25125 c 0,0.68818 0.005,1.25626 0.0112,1.26239 0.006,0.006 0.33722,0.0111 0.73575,0.0111 h 0.7246 v -0.43603 z m 4.35596,-6.89708 c 0.59029,-0.0386 1.21837,-0.30159 1.69213,-0.70858 0.35615,-0.30595 0.65645,-0.74898 0.81348,-1.20012 0.21412,-0.61515 0.21716,-1.38597 0.008,-2.02015 -0.0619,-0.18767 -0.25252,-0.58043 -0.35707,-0.73575 -0.27858,-0.41382 -0.66873,-0.75412 -1.10125,-0.96053 -0.17762,-0.0848 -0.34074,-0.14415 -0.35548,-0.12941 -0.007,0.007 -0.35011,1.22967 -0.4003,1.42524 -0.007,0.0287 0.0158,0.0489 0.14149,0.12327 0.38316,0.2268 0.61888,0.52463 0.72302,0.9135 0.12591,0.4702 -0.075,1.04556 -0.47839,1.37016 -0.11829,0.0952 -0.3867,0.2266 -0.55182,0.27019 -0.16091,0.0425 -0.60193,0.0423 -0.76082,-2.4e-4 -0.27838,-0.0746 -0.55011,-0.22372 -0.69599,-0.38199 -0.15412,-0.16719 -0.26872,-0.37511 -0.31957,-0.57977 -0.038,-0.15295 -0.0373,-0.63257 0.001,-0.79179 0.0588,-0.24339 0.18364,-0.44972 0.40224,-0.66477 l 0.12723,-0.12516 v -0.74033 -0.74035 l -0.80682,0.004 -0.80681,0.004 -0.004,0.53763 -0.004,0.53762 -0.0594,0.0978 c -0.20761,0.3419 -0.34347,0.74515 -0.39325,1.16727 -0.0262,0.22173 -0.0106,0.80277 0.027,1.01236 0.2309,1.28531 1.30285,2.23422 2.62498,2.32366 0.18043,0.0122 0.23154,0.0114 0.53509,-0.008 z m -1.07854,-6.64044 v -0.36221 l 0.71766,0.0114 c 0.75645,0.012 0.98464,0.002 1.2669,-0.0564 0.20988,-0.0433 0.377,-0.10163 0.56986,-0.19887 0.58395,-0.29444 0.92556,-0.75664 1.07639,-1.45638 0.0501,-0.23222 0.0547,-0.77157 0.009,-1.01753 -0.0679,-0.36337 -0.21162,-0.69363 -0.40511,-0.9312 -0.0407,-0.0499 -0.074,-0.0947 -0.074,-0.0994 0,-0.005 0.10159,-0.009 0.22574,-0.009 h 0.22574 v -1.17887 -1.17887 h -0.73574 -0.73575 v 0.33443 0.33443 h -2.04839 -2.04838 v 0.87886 0.87886 l 1.83518,-0.0113 1.83519,-0.0113 0.14016,0.071 c 0.2569,0.13011 0.45913,0.36428 0.54134,0.62687 0.0286,0.0914 0.0363,0.15552 0.0351,0.29263 -0.002,0.20843 -0.0341,0.34563 -0.12005,0.50948 -0.11669,0.22257 -0.30416,0.36691 -0.58043,0.44689 l -0.13318,0.0386 -1.60945,-0.004 -1.60944,-0.004 v 1.22882 1.22883 h 0.81099 0.81099 z m 7.6083,-7.95675 v -1.81428 h -0.73575 -0.73575 v 0.52673 0.52673 h -1.32075 -1.32076 l 0.0355,-0.0878 c 0.0608,-0.15057 0.11357,-0.33062 0.16036,-0.54763 0.0418,-0.19367 0.0451,-0.2385 0.0456,-0.61034 4.8e-4,-0.35279 -0.004,-0.42403 -0.0375,-0.58913 -0.26068,-1.28605 -1.32153,-2.197 -2.6509,-2.27634 -0.54882,-0.0327 -1.03244,0.0599 -1.51116,0.28955 -0.8648,0.41485 -1.44909,1.2125 -1.58679,2.16625 -0.0397,0.27483 -0.0257,0.67869 0.0319,0.91968 0.0343,0.1436 0.10866,0.37849 0.17073,0.53927 0.009,0.0222 0.003,0.0293 -0.0239,0.0293 h -0.0352 v 1.21231 1.21231 h 0.73575 0.73575 v -0.30099 -0.30098 h 3.28578 3.28578 v 0.45984 0.45984 h 0.73574 0.73575 z m -7.61666,-0.82181 c -0.26633,-0.19164 -0.46128,-0.46389 -0.54304,-0.75837 -0.065,-0.23419 -0.0451,-0.5517 0.051,-0.81183 0.12548,-0.33965 0.40423,-0.6147 0.75119,-0.74123 0.22032,-0.0804 0.29946,-0.093 0.58525,-0.0933 0.23799,-2.6e-4 0.29429,0.005 0.40968,0.038 0.49867,0.14267 0.85868,0.49705 0.97991,0.96459 0.0458,0.17674 0.0496,0.45089 0.009,0.63542 -0.0611,0.27558 -0.2431,0.56527 -0.46995,0.74803 l -0.0989,0.0797 -0.79511,-5.3e-4 -0.7951,-5.3e-4 -0.0836,-0.0602 z m 4.64859,-7.83992 c 0.37378,-0.0782 0.69154,-0.37467 0.77966,-0.7274 0.019,-0.076 0.023,-0.53756 0.023,-2.65872 0,-2.44418 -0.001,-2.57155 -0.0307,-2.66709 -0.0835,-0.27258 -0.25882,-0.47647 -0.51504,-0.59909 -0.0861,-0.0412 -0.19791,-0.085 -0.24849,-0.0974 -0.0757,-0.0185 -0.76958,-0.0225 -3.92956,-0.0225 -3.63073,0 -3.84345,0.002 -3.94628,0.0298 -0.34631,0.095 -0.61041,0.32231 -0.72313,0.62231 l -0.0377,0.10033 -0.004,2.60019 c -0.003,1.82661 9.8e-4,2.62638 0.0138,2.6882 0.0598,0.28868 0.34572,0.59855 0.63939,0.6928 0.18958,0.0608 0.15566,0.0603 4.05839,0.0617 3.27985,10e-4 3.82028,-0.002 3.9212,-0.0231 z m -7.79223,-0.38284 c -0.17302,-0.0549 -0.31522,-0.17624 -0.38264,-0.32647 l -0.0442,-0.0985 0.004,-2.58928 0.004,-2.58928 0.0491,-0.0887 c 0.0851,-0.15356 0.23835,-0.26279 0.42407,-0.3022 0.12508,-0.0265 7.50494,-0.0268 7.63174,-2.6e-4 0.20001,0.0418 0.36167,0.16778 0.44586,0.34733 l 0.0441,0.094 v 2.55003 c 0,2.43589 -0.001,2.554 -0.0309,2.6386 -0.0436,0.12505 -0.18056,0.26878 -0.31557,0.33113 l -0.10505,0.0485 -3.82923,0.003 c -3.05531,0.003 -3.84275,-0.001 -3.89611,-0.0181 z m 4.59006,-1.08015 v -0.23395 l -0.84385,-0.004 -0.84384,-0.004 0.57814,-0.68558 c 0.7484,-0.88748 0.75358,-0.89385 0.86645,-1.06702 0.18614,-0.28557 0.2721,-0.55646 0.25193,-0.79396 -0.0437,-0.51455 -0.40316,-0.90859 -0.92016,-1.00868 -0.14454,-0.028 -0.42111,-0.0197 -0.56244,0.0168 -0.39347,0.10162 -0.68707,0.37901 -0.81563,0.7706 -0.0194,0.0591 -0.04,0.15867 -0.0459,0.2212 l -0.0106,0.1137 h 0.23537 c 0.26336,0 0.24209,0.0111 0.2622,-0.13707 0.0457,-0.33648 0.41792,-0.58047 0.78745,-0.51612 0.37492,0.0653 0.617,0.3757 0.56334,0.72237 -0.02,0.12911 -0.0993,0.31053 -0.20142,0.46074 -0.0363,0.0534 -0.42066,0.5254 -0.85409,1.04884 l -0.78805,0.95171 v 0.18954 0.18953 h 1.17051 1.1705 z m -3.12192,-1.03271 c 0.11536,-0.3012 0.24099,-0.62852 0.27918,-0.72739 l 0.0694,-0.17975 h 0.074 0.074 v -0.1505 -0.15049 h -0.27591 -0.27591 v 0.14943 0.14944 l 0.0467,0.005 0.0467,0.005 -0.18682,0.53425 c -0.10275,0.29384 -0.19336,0.54462 -0.20135,0.55729 -0.01,0.0156 -0.0799,-0.15681 -0.2172,-0.53425 l -0.20267,-0.55729 0.0773,-0.008 0.0773,-0.008 0.005,-0.14632 0.005,-0.14631 h -0.31 -0.31 v 0.15049 0.1505 l 0.0711,1.6e-4 0.0711,1.7e-4 0.26605,0.69802 c 0.14633,0.38391 0.27263,0.71119 0.28068,0.72729 0.0124,0.0247 0.0388,0.0293 0.17085,0.0293 h 0.15622 l 0.20975,-0.54763 z m 3.96557,0.31779 c 0.11601,-0.0411 0.17941,-0.11074 0.22373,-0.24575 0.042,-0.12793 0.0374,-0.19023 -0.0228,-0.31032 -0.0458,-0.0913 -0.0779,-0.12169 -0.17541,-0.16593 -0.16528,-0.075 -0.39434,-0.0116 -0.49513,0.13695 -0.0436,0.0643 -0.048,0.0838 -0.0479,0.21291 1.4e-4,0.12486 0.005,0.15026 0.0438,0.20902 0.0591,0.0905 0.0967,0.12159 0.19246,0.15899 0.10275,0.0401 0.17649,0.0412 0.28117,0.004 z m 1.78163,-0.1464 v -0.17557 h -0.1505 -0.15049 v -1.40461 -1.40461 h -0.0834 c -0.0763,0 -0.12018,0.0205 -0.5099,0.23828 l -0.42646,0.23828 -1e-4,0.20484 c -5e-5,0.11875 0.007,0.20484 0.0158,0.20484 0.009,0 0.13897,-0.0674 0.28935,-0.14976 0.15037,-0.0824 0.28622,-0.15467 0.30189,-0.16069 0.0267,-0.0102 0.0282,0.0598 0.0242,1.10707 l -0.004,1.118 -0.14631,0.005 -0.14631,0.005 v 0.17492 0.17493 h 0.49328 0.49329 z m -1.90626,-7.90085 c 1.43778,-0.0573 2.68094,-0.18825 3.75398,-0.39531 0.34344,-0.0663 0.86287,-0.18763 0.88312,-0.20633 0.0182,-0.0168 -0.21468,-0.16466 -0.46377,-0.29444 -0.60496,-0.31521 -1.55222,-0.60738 -2.43762,-0.75184 -0.44424,-0.0725 -0.4422,-0.0736 0.12038,-0.0661 0.55992,0.008 0.79512,0.0221 1.23739,0.0769 0.90276,0.11185 1.5618,0.29249 2.16993,0.59474 l 0.28875,0.14352 0.12701,-0.0554 c 0.12878,-0.0562 0.38813,-0.20301 0.47088,-0.26663 0.10445,-0.0803 0.25149,-0.24025 0.28856,-0.31385 0.061,-0.12111 0.0649,-0.27611 0.01,-0.396 -0.33355,-0.72856 -2.62079,-1.33704 -5.72126,-1.52202 -0.40382,-0.0241 -1.2701,-0.0589 -1.46732,-0.0589 l -0.0961,-2e-5 1e-5,0.0627 c 1e-5,0.0965 0.0633,0.63383 0.10983,0.93222 0.0536,0.34358 0.17143,0.92726 0.25817,1.27833 0.0405,0.16397 0.064,0.29302 0.0582,0.31954 -0.005,0.0245 -0.0301,0.0635 -0.0549,0.0868 -0.11311,0.10578 -0.27468,0.14565 -0.63879,0.15763 -0.43573,0.0143 -0.83758,-0.0524 -0.95391,-0.15846 l -0.0495,-0.0451 0.0419,-0.1304 c 0.0611,-0.19 0.0908,-0.3837 0.10953,-0.71403 0.0156,-0.27412 0.0106,-0.95638 -0.0112,-1.53073 l -0.01,-0.25152 -0.16144,0.005 c -2.80243,0.0891 -5.00755,0.4576 -6.14375,1.02667 -0.32061,0.16058 -0.57358,0.372 -0.65181,0.54474 -0.16751,0.36991 0.20631,0.76141 1.03355,1.08242 l 0.1182,0.0459 0.12137,-0.0913 c 0.61357,-0.46158 1.66151,-0.78576 2.92802,-0.90578 0.49417,-0.0468 1.39219,-0.0762 1.41078,-0.0461 0.004,0.007 -0.0815,0.0262 -0.19103,0.0421 -0.67757,0.0982 -1.49957,0.31506 -2.10599,0.55552 -0.46124,0.18289 -0.89394,0.43008 -1.1366,0.64931 -0.0387,0.0349 -0.067,0.0669 -0.0629,0.0709 0.0124,0.0124 0.4371,0.10247 0.77312,0.16391 0.97731,0.17869 2.2178,0.30652 3.48644,0.35926 0.47481,0.0197 2.0819,0.021 2.55839,0.002 z"
       id="path16159" />
  </g>
</svg>
