<?xml version="1.0" encoding="UTF-8" standalone="no"?>
<svg
   xmlns:dc="http://purl.org/dc/elements/1.1/"
   xmlns:cc="http://creativecommons.org/ns#"
   xmlns:rdf="http://www.w3.org/1999/02/22-rdf-syntax-ns#"
   xmlns:svg="http://www.w3.org/2000/svg"
   xmlns="http://www.w3.org/2000/svg"
   xmlns:sodipodi="http://sodipodi.sourceforge.net/DTD/sodipodi-0.dtd"
   xmlns:inkscape="http://www.inkscape.org/namespaces/inkscape"
   sodipodi:docname="virtue-icons.svg"
   inkscape:version="1.0 (6e3e5246a0, 2020-05-07)"
   id="svg11932"
   version="1.1"
   viewBox="0 0 67.90451 6.4213152"
   height="6.4213152mm"
   width="67.90451mm">
  <defs
     id="defs11926" />
  <sodipodi:namedview
     inkscape:window-maximized="0"
     inkscape:window-y="120"
     inkscape:window-x="122"
     inkscape:window-height="747"
     inkscape:window-width="1683"
     showgrid="false"
     inkscape:document-rotation="0"
     inkscape:current-layer="layer1"
     inkscape:document-units="mm"
     inkscape:cy="363.56334"
     inkscape:cx="-223.10475"
     inkscape:zoom="0.35"
     inkscape:pageshadow="2"
     inkscape:pageopacity="0.0"
     borderopacity="1.0"
     bordercolor="#666666"
     pagecolor="#ffffff"
     id="base" />
  <metadata
     id="metadata11929">
    <rdf:RDF>
      <cc:Work
         rdf:about="">
        <dc:format>image/svg+xml</dc:format>
        <dc:type
           rdf:resource="http://purl.org/dc/dcmitype/StillImage" />
        <dc:title></dc:title>
      </cc:Work>
    </rdf:RDF>
  </metadata>
  <g
     transform="translate(-164.86313,-51.973866)"
     id="layer1"
     inkscape:groupmode="layer"
     inkscape:label="Layer 1">
    <path
       style="font-variant:normal;font-weight:normal;font-size:3.57951px;line-height:3.4;font-family:Arvo;-inkscape-font-specification:Arvo;writing-mode:lr-tb;opacity:1;fill:#483737;fill-opacity:1;fill-rule:nonzero;stroke:none;stroke-width:0.00911495"
       d="m 228.32434,58.304015 c -0.60007,-0.05784 -1.2073,-0.519238 -1.52508,-1.158732 -0.15441,-0.310835 -0.22086,-0.580673 -0.22999,-0.934106 -0.005,-0.21436 0.002,-0.317992 0.0349,-0.498363 l 0.0196,-0.106066 0.0634,0.0535 c 0.15316,0.12885 0.35657,0.200174 0.89464,0.313792 0.61352,0.129534 0.9158,0.236269 1.18066,0.416915 0.29876,0.203768 0.49932,0.507241 0.58158,0.880052 0.0273,0.12365 0.0299,0.11707 -0.0524,0.131864 -0.0909,0.01637 -0.41218,0.01771 -0.53505,9.26e-4 -0.31044,-0.04052 -0.61206,-0.123462 -0.82282,-0.226113 -0.047,-0.02248 -0.0869,-0.03979 -0.0893,-0.03739 -0.002,0.0023 0.0281,0.03647 0.0673,0.07638 0.19,0.192118 0.50931,0.331131 0.89939,0.391584 0.15452,0.02387 0.49587,0.02437 0.63752,9.79e-4 0.37297,-0.06223 0.72108,-0.207832 1.01433,-0.423673 0.0528,-0.03898 0.069,-0.04697 0.0758,-0.03706 0.055,0.07847 0.0653,0.203989 0.0243,0.292004 -0.0341,0.07277 -0.0798,0.112549 -0.21304,0.18508 -0.31652,0.172354 -0.68447,0.283897 -1.02872,0.311866 l -0.0728,0.0044 -0.0773,0.0744 c -0.14463,0.138919 -0.29592,0.2224 -0.48103,0.265479 -0.0525,0.01256 -0.24202,0.03315 -0.27486,0.03047 -0.009,-6.35e-4 -0.0483,-0.0027 -0.0907,-0.0088 z m 2.83877,-0.03395 c 0.008,-0.03036 0.014,-0.08013 0.014,-0.1665 -5.3e-4,-0.18673 -0.0315,-0.322872 -0.18033,-0.784539 -0.16988,-0.526308 -0.22581,-0.77342 -0.2384,-1.053653 -0.0166,-0.344433 0.0778,-0.65924 0.2736,-0.922428 0.0527,-0.07079 0.17976,-0.20612 0.24509,-0.260882 l 0.0433,-0.03648 0.032,0.03506 c 0.0178,0.01942 0.0597,0.07626 0.0934,0.126344 0.20949,0.310652 0.38598,0.825512 0.40813,1.190528 0.002,0.05562 0.008,0.0978 0.013,0.09413 0.0159,-0.01619 0.0534,-0.170583 0.0629,-0.259372 0.042,-0.381798 -0.13818,-0.942257 -0.4234,-1.317644 -0.21842,-0.287445 -0.49846,-0.516843 -0.83126,-0.68099 -0.0815,-0.04009 -0.148,-0.07691 -0.14801,-0.08185 0,-0.0199 0.0577,-0.09076 0.0943,-0.115984 0.0952,-0.06555 0.20401,-0.07262 0.3099,-0.02063 0.0778,0.03812 0.2903,0.180394 0.38419,0.256683 0.17076,0.138804 0.36514,0.346654 0.49251,0.52663 0.035,0.04975 0.0664,0.08437 0.0753,0.08458 0.009,-1.7e-5 0.0515,0.0083 0.0959,0.02324 0.18631,0.05421 0.36443,0.171686 0.48991,0.323348 0.12838,0.155184 0.21807,0.352023 0.26767,0.587343 0.0288,0.13641 0.0399,0.426692 0.0226,0.580772 -0.0759,0.668858 -0.45004,1.276723 -1.01153,1.64371 -0.11721,0.07666 -0.33398,0.184385 -0.47127,0.234367 -0.1328,0.04833 -0.13165,0.04888 -0.11386,-0.004 z m -3.20582,-2.721554 c -0.0844,-0.01993 -0.15987,-0.08056 -0.19863,-0.159528 -0.0196,-0.03963 -0.0224,-0.05993 -0.0254,-0.167993 -0.008,-0.343159 0.0736,-0.735072 0.22835,-1.083908 l 0.0464,-0.104651 -0.0254,-0.09665 c -0.0307,-0.117182 -0.0404,-0.286051 -0.0236,-0.403656 0.0323,-0.222589 0.14838,-0.4444 0.33214,-0.635625 0.2943,-0.306296 0.7021,-0.502015 1.19369,-0.572915 0.13353,-0.01945 0.43383,-0.02173 0.56012,-0.0035 0.48883,0.0664 0.91,0.260724 1.26426,0.583589 l 0.0303,0.0279 -0.0394,0.0073 c -0.10616,0.02884 -0.21614,0.09494 -0.35405,0.214846 -0.10304,0.08928 -0.15503,0.143475 -0.43292,0.450727 -0.40488,0.447717 -0.62546,0.636851 -0.9043,0.775435 -0.10939,0.05429 -0.23215,0.09855 -0.34256,0.123297 -0.10086,0.02235 -0.35256,0.02799 -0.47423,0.0079 -0.0967,-0.01435 -0.30368,-0.06782 -0.34227,-0.0884 -0.0219,-0.01239 -0.0196,-0.02501 0.0206,-0.127 0.12842,-0.324164 0.5275,-0.799778 0.85766,-1.022174 l 0.0838,-0.05651 -0.0487,0.0041 c -0.0268,0.0026 -0.0871,0.0198 -0.13385,0.03654 -0.20585,0.07377 -0.41231,0.221944 -0.60245,0.432529 -0.26294,0.291221 -0.42039,0.581525 -0.51295,0.945577 -0.0542,0.213526 -0.0667,0.315917 -0.0676,0.551894 5.3e-4,0.112961 0.002,0.241191 0.006,0.285089 l 0.008,0.07959 -0.0346,-6.35e-4 c -0.0191,-4.23e-4 -0.0501,-0.0026 -0.0691,-0.008 z"
       id="path10550"
       inkscape:connector-curvature="0"
       sodipodi:nodetypes="csccccscccccccscsccsccsccccccccccccscsccsccccsccccssccccccccscsscccccscccscccccccccccc" />
    <path
       inkscape:export-ydpi="185.07703"
       inkscape:export-xdpi="185.07703"
       inkscape:connector-curvature="0"
       id="path10552"
       style="font-variant:normal;font-weight:normal;font-size:3.57951px;line-height:3.4;font-family:Arvo;-inkscape-font-specification:Arvo;writing-mode:lr-tb;opacity:1;fill:#483737;fill-opacity:1;fill-rule:nonzero;stroke:none;stroke-width:0.309348"
       d="m 216.84975,58.273564 c -0.65823,-0.209585 -1.07425,-0.474193 -1.47115,-0.938719 l -0.18827,-0.219264 -0.16491,0.06119 c -0.18069,0.06816 -0.29266,0.06546 -0.30848,-0.0056 -0.004,-0.02635 0.0307,-0.30581 0.0814,-0.621924 0.0978,-0.624409 0.1263,-0.704177 0.25283,-0.700321 0.0873,0.0028 0.98769,0.698933 1.01772,0.786914 0.0271,0.07761 -0.0453,0.156681 -0.1889,0.20652 -0.0593,0.021 -0.11033,0.0487 -0.11202,0.05945 -0.004,0.03947 0.2739,0.320316 0.44373,0.447427 0.092,0.06831 0.2735,0.17499 0.40421,0.238056 0.21048,0.101545 0.28299,0.122605 0.62679,0.176465 0.3426,0.05358 0.42048,0.05629 0.64546,0.02544 0.36409,-0.05161 0.45254,-0.03062 0.50133,0.117679 0.0599,0.17941 -0.0291,0.341745 -0.22509,0.407489 -0.2259,0.07482 -1.02682,0.05104 -1.31468,-0.04062 z m 2.26369,-0.692482 c -0.0204,-0.03383 -0.004,-0.229614 0.0525,-0.670646 0.0798,-0.61124 0.083,-0.624197 0.14946,-0.666381 0.0668,-0.04329 0.069,-0.04299 0.23394,0.07578 0.0925,0.067 0.17561,0.114232 0.18517,0.107279 0.0108,-0.0067 0.0565,-0.12705 0.10402,-0.26645 0.15409,-0.459954 0.12815,-1.027943 -0.0697,-1.522646 -0.0495,-0.121435 -0.18209,-0.352603 -0.29603,-0.514809 -0.17128,-0.241931 -0.20791,-0.313747 -0.20498,-0.402501 0.002,-0.08927 0.0165,-0.121122 0.0849,-0.173961 0.0696,-0.05511 0.1061,-0.06172 0.22193,-0.04364 0.12317,0.01936 0.15544,0.03913 0.26571,0.162801 0.32628,0.361699 0.59649,1.009292 0.65414,1.562845 0.0405,0.397725 -0.0426,0.976515 -0.19393,1.332029 -0.0544,0.129854 -0.10084,0.245954 -0.10292,0.259105 -0.002,0.01319 0.0471,0.06505 0.1079,0.114911 0.11391,0.09236 0.14754,0.167436 0.10684,0.239369 -0.0285,0.04915 -1.09882,0.456322 -1.19795,0.455493 -0.0412,-2.05e-4 -0.0848,-0.0204 -0.10102,-0.04868 z m -4.26173,-2.645565 c -0.0793,-0.08697 -0.0626,-0.248096 0.0507,-0.511834 0.14628,-0.340314 0.30923,-0.606918 0.50488,-0.82456 0.52733,-0.587791 1.16722,-0.900879 2.02387,-0.990571 0.0214,-0.0027 0.044,-0.0532 0.0563,-0.131766 0.0248,-0.158914 0.0752,-0.229362 0.15728,-0.216459 0.0513,0.0074 0.92056,0.705623 1.02249,0.820537 0.0436,0.04975 0.0202,0.152541 -0.0442,0.19507 -0.0886,0.05822 -1.08206,0.449226 -1.16025,0.4567 -0.11932,0.01187 -0.15689,-0.09784 -0.11893,-0.340209 0.0178,-0.113381 0.0273,-0.206145 0.0224,-0.206895 -0.037,-0.006 -0.35726,0.06403 -0.49249,0.107593 -0.6593,0.211095 -1.16827,0.687763 -1.44651,1.354642 -0.0915,0.218335 -0.13639,0.293009 -0.19998,0.333162 -0.10294,0.06347 -0.29755,0.04042 -0.37585,-0.04547 z" />
    <path
       inkscape:export-ydpi="185.07703"
       inkscape:export-xdpi="185.07703"
       inkscape:connector-curvature="0"
       id="path10572"
       d="m 180.38936,57.825912 c -0.0987,-0.09961 -0.28628,-0.275908 -0.41685,-0.391794 -0.86598,-0.768744 -1.37963,-1.277249 -1.71267,-1.695674 -0.4992,-0.627087 -0.7087,-1.227234 -0.62823,-1.799706 0.0963,-0.68524 0.57714,-1.207457 1.25412,-1.361999 0.13916,-0.03197 0.52915,-0.03383 0.66128,-0.0038 0.35802,0.08172 0.64381,0.234215 0.89166,0.475592 l 0.10736,0.104503 0.11303,-0.11257 c 0.23845,-0.237478 0.52452,-0.393053 0.88088,-0.478977 0.13044,-0.03128 0.52167,-0.03437 0.65888,-0.0046 0.62492,0.135309 1.08725,0.582063 1.23755,1.195822 0.11662,0.476182 0.0326,0.970384 -0.25092,1.477164 -0.12438,0.222242 -0.28364,0.443685 -0.51803,0.720315 -0.25507,0.30099 -0.93851,0.971997 -1.51407,1.486448 -0.0504,0.045 -0.20026,0.191783 -0.33297,0.326002 -0.13272,0.134227 -0.24364,0.244061 -0.24644,0.244077 -0.003,1.6e-5 -0.0858,-0.08137 -0.18459,-0.181042 z"
       style="font-variant:normal;font-weight:normal;font-size:3.57951px;line-height:3.4;font-family:Arvo;-inkscape-font-specification:Arvo;writing-mode:lr-tb;opacity:1;fill:#483737;fill-opacity:1;fill-rule:nonzero;stroke:none;stroke-width:0.0116009" />
    <g
       id="g10596"
       transform="matrix(-0.01164494,-0.81228808,0.81228808,-0.01164494,30.92739,99.304589)"
       style="font-variant:normal;font-weight:normal;font-size:3.57951px;line-height:3.4;font-family:Arvo;-inkscape-font-specification:Arvo;writing-mode:lr-tb;opacity:1;fill:#483737;fill-opacity:1;fill-rule:nonzero;stroke:none;stroke-width:0.506008">
      <path
         style="fill:#483737;fill-opacity:1;stroke-width:0.0339704"
         d="m 47.964467,168.8715 c 0.32668,-1.9588 2.07101,-3.36155 4.02181,-3.23436 0.92878,0.0606 1.74736,0.42869 2.42294,1.08961 0.49649,0.48569 0.78746,0.93617 0.96248,1.49003 0.13217,0.41821 0.1673,0.61739 0.18652,1.05655 0.0478,1.08605 -0.31231,2.05127 -1.05324,2.82549 -0.69222,0.72331 -1.55068,1.10694 -2.58758,1.1563 -1.85062,0.0881 -3.44158,-1.11318 -3.88426,-2.93284 -0.0917,-0.37689 -0.12621,-1.10594 -0.0686,-1.45078 z m 0.7522,1.29861 c 0.24817,1.01501 1.00881,1.89281 1.92165,2.21763 0.38073,0.13547 0.61611,0.17522 1.06417,0.17964 0.63405,0.006 1.12287,-0.12206 1.66226,-0.43625 0.2809,-0.16363 0.66474,-0.50727 0.88232,-0.78992 0.20702,-0.26893 0.4415,-0.74428 0.53739,-1.08931 0.10891,-0.39189 0.11549,-1.137 0.0137,-1.54559 -0.27337,-1.09794 -1.17511,-1.99906 -2.3048,-2.30324 -0.39933,-0.10756 -1.04978,-0.1116 -1.44845,-0.009 -0.96293,0.24779 -1.82214,0.98041 -2.17894,1.85797 -0.24501,0.60263 -0.29964,1.30377 -0.14945,1.91805 z m 1.88243,0.063 c 0.13182,-0.41894 0.45399,-0.67349 0.93058,-0.73529 0.80469,-0.10435 1.38488,0.36151 1.3785,1.10687 -0.001,0.13603 -0.0257,0.32401 -0.0544,0.41773 -0.0611,0.19905 -0.24075,0.44251 -0.38882,0.52651 l -0.10403,0.0588 -0.11945,-0.22965 c -0.0658,-0.12631 -0.1193,-0.24129 -0.11919,-0.25547 1.2e-4,-0.0143 0.0393,-0.0509 0.0873,-0.0819 0.11782,-0.0758 0.18697,-0.21695 0.1884,-0.38481 0.003,-0.32131 -0.21175,-0.48122 -0.65048,-0.48492 -0.44021,-0.003 -0.67177,0.16276 -0.67431,0.48467 -10e-4,0.16583 0.0894,0.39557 0.15732,0.39901 0.0144,5.3e-4 0.0532,0.0223 0.0865,0.0481 0.0572,0.0443 0.0545,0.0584 -0.052,0.27027 -0.0619,0.12292 -0.13192,0.22333 -0.15553,0.22313 -0.0938,-8.6e-4 -0.4076,-0.3707 -0.47775,-0.56319 -0.0722,-0.19791 -0.0894,-0.62007 -0.0328,-0.80003 z"
         id="path10574"
         inkscape:connector-curvature="0"
         inkscape:export-xdpi="185.07703"
         inkscape:export-ydpi="185.07703"
         sodipodi:nodetypes="cssscssscccscssscccscccscccccscccccsccccc" />
      <path
         sodipodi:nodetypes="cscccccscccccsccccc"
         inkscape:export-ydpi="185.07703"
         inkscape:export-xdpi="185.07703"
         inkscape:connector-curvature="0"
         id="path10576"
         d="m 50.642197,167.87735 c 0.13182,-0.41894 0.45399,-0.67349 0.93058,-0.73529 0.80469,-0.10435 1.38488,0.36151 1.3785,1.10687 -10e-4,0.13603 -0.0257,0.32401 -0.0544,0.41773 -0.0611,0.19905 -0.24075,0.44251 -0.38882,0.52651 l -0.10403,0.0588 -0.11945,-0.22965 c -0.0658,-0.12631 -0.1193,-0.24129 -0.11919,-0.25547 1.2e-4,-0.0143 0.0393,-0.0509 0.0873,-0.0819 0.11782,-0.0758 0.18697,-0.21695 0.1884,-0.38481 0.003,-0.32131 -0.21175,-0.48122 -0.65048,-0.48492 -0.44021,-0.003 -0.67177,0.16276 -0.67431,0.48467 -0.001,0.16583 0.0894,0.39557 0.15732,0.39901 0.0144,5.3e-4 0.0532,0.0223 0.0865,0.0481 0.0572,0.0443 0.0545,0.0584 -0.052,0.27027 -0.0619,0.12292 -0.13192,0.22333 -0.15553,0.22313 -0.0938,-8.6e-4 -0.4076,-0.3707 -0.47775,-0.56319 -0.0722,-0.19791 -0.0894,-0.62007 -0.0328,-0.80003 z"
         style="fill:#483737;fill-opacity:1;stroke-width:0.0339704" />
    </g>
    <path
       style="font-variant:normal;font-weight:normal;font-size:3.57951px;line-height:3.4;font-family:Arvo;-inkscape-font-specification:Arvo;writing-mode:lr-tb;opacity:1;fill:#483737;fill-opacity:1;fill-rule:nonzero;stroke:none;stroke-width:0.0195063"
       d="m 205.0132,58.097059 c -0.32325,-0.04337 -0.52749,-0.109396 -0.64124,-0.207401 -0.0932,-0.08028 -0.10173,-0.109273 -0.0873,-0.297688 0.008,-0.114798 0.016,-0.534278 0.0159,-0.932144 -9e-5,-0.397889 0.003,-0.72343 0.007,-0.723432 0.003,1.9e-5 0.12532,0.02901 0.26962,0.06448 0.18392,0.04525 0.4294,0.06444 0.82088,0.06445 0.3915,9e-6 0.63696,-0.01925 0.82088,-0.06449 0.14431,-0.03546 0.26688,-0.06453 0.27238,-0.0645 0.006,-1e-6 0.003,0.282126 -0.007,0.626962 -0.01,0.355613 0.002,0.743392 0.025,0.896013 0.0354,0.227542 0.0327,0.283148 -0.0179,0.360486 -0.0863,0.131775 -0.33335,0.227781 -0.70726,0.274747 -0.35628,0.04479 -0.45341,0.04506 -0.77121,0.0021 z m -1.40038,-1.441034 -0.30262,-0.896124 -0.37313,0.002 c -0.35552,0.0017 -0.3867,-0.0057 -0.6603,-0.142894 -0.15794,-0.07935 -0.34711,-0.194751 -0.42041,-0.256384 l -0.13323,-0.112036 0.30097,-0.02826 c 0.38059,-0.03581 0.77111,0.0025 0.95733,0.09386 0.0795,0.03911 0.14444,0.06437 0.14444,0.05661 0,-0.0079 -0.0879,-0.211928 -0.19536,-0.453479 l -0.19535,-0.439167 -0.23999,0.01918 c -0.28297,0.02272 -0.45637,-0.04877 -0.69193,-0.285277 l -0.14784,-0.148452 0.30915,-0.01118 c 0.21039,-0.0075 0.35344,0.0073 0.44778,0.04687 0.16044,0.06717 0.16875,0.08864 -0.14408,-0.372734 -0.1257,-0.185373 -0.34312,-0.463165 -0.48319,-0.617304 -0.14007,-0.154151 -0.20335,-0.237366 -0.14061,-0.184923 0.25498,0.213164 0.68994,0.652337 0.87487,0.883345 l 0.19665,0.245646 0.0456,-0.154362 c 0.053,-0.179829 0.26124,-0.556535 0.34708,-0.627902 0.0527,-0.04392 0.0565,-0.0197 0.0345,0.217314 -0.0324,0.348981 -0.0849,0.550251 -0.17763,0.680681 l -0.0755,0.106193 0.24122,0.441849 0.24121,0.441838 0.0803,-0.277563 c 0.0924,-0.319084 0.24934,-0.623612 0.42727,-0.829166 l 0.12369,-0.14288 0.0293,0.192904 c 0.0582,0.383352 -0.0817,0.882512 -0.34331,1.225324 -0.0771,0.100933 -0.14013,0.193917 -0.14013,0.206541 0,0.01259 0.0871,0.240933 0.19364,0.507352 l 0.19363,0.484407 -0.0106,0.512382 -0.0106,0.512382 z m 3.09525,0.697311 c -2.7e-4,-0.262545 0.089,-0.832613 0.17853,-1.146855 0.23498,-0.824341 0.83803,-1.704423 1.48331,-2.16467 l 0.10928,-0.0779 -0.0213,0.301438 c -0.11,1.552453 -0.54565,2.500306 -1.39543,3.036139 -0.091,0.0574 -0.20805,0.120594 -0.25998,0.140359 -0.0881,0.03364 -0.0944,0.02777 -0.0943,-0.08847 z m -1.92433,-1.576608 c -0.11561,-0.01925 -0.3042,-0.07793 -0.41907,-0.130692 -0.23595,-0.108247 -0.2274,-0.05812 -0.10529,-0.616302 0.0641,-0.292439 0.079,-1.209057 0.0252,-1.537128 -0.0169,-0.102733 -0.0195,-0.24144 -0.006,-0.30827 0.0532,-0.260446 0.53334,-0.39543 1.29587,-0.364329 0.51671,0.02103 0.78811,0.100108 0.91077,0.264895 0.0691,0.09276 0.0711,0.122865 0.0282,0.416214 -0.0694,0.47534 -0.0303,1.423245 0.0716,1.737969 0.0442,0.136358 0.0713,0.262562 0.0602,0.28045 -0.049,0.0794 -0.40423,0.218905 -0.65753,0.258183 -0.3212,0.0498 -0.90131,0.04934 -1.20426,-9.52e-4 z m 1.40423,-2.458968 0.1926,-0.0873 -0.0879,-0.07204 c -0.26961,-0.221026 -1.51483,-0.222859 -1.78633,-0.0027 l -0.0856,0.06935 0.094,0.05104 c 0.20345,0.110467 0.48171,0.150107 0.97987,0.13957 0.42338,-0.0094 0.53047,-0.02413 0.6933,-0.09796 z"
       id="path10588" />
    <g
       style="font-variant:normal;font-weight:normal;font-size:3.57951px;line-height:3.4;font-family:Arvo;-inkscape-font-specification:Arvo;writing-mode:lr-tb;opacity:1;fill:#483737;fill-opacity:1;fill-rule:nonzero;stroke:none;stroke-width:0.506008"
       id="g2670"
       transform="matrix(0.15200701,0,0,0.15200701,111.6476,40.176987)">
      <path
         inkscape:connector-curvature="0"
         id="path43006"
         d="m 519.19598,104.72185 c -3.57761,-0.29164 -7.23474,-3.07989 -7.25742,-6.897381 -0.11977,-3.379021 2.7831,-6.02609 5.86031,-6.821583 -0.40979,-3.705823 0.7493,-7.658679 3.58177,-10.186602 4.00412,-4.024617 11.01224,-4.286693 15.36007,-0.654367 1.40962,0.897717 2.27304,2.817094 3.29897,3.737954 3.44368,-1.755583 8.03624,-0.76453 10.31124,2.405954 1.00911,1.229899 1.4865,2.777009 1.74199,4.317324 2.22867,0.26272 4.59705,0.85573 6.21479,2.556007 2.43293,2.185443 2.68421,6.246193 0.46,8.662694 -1.45488,1.64462 -3.61769,2.76036 -5.80868,2.89733 -11.25431,-0.003 -22.50892,0.0406 -33.76304,-0.0173 z M 549.51817,101.18 c 0.32348,-1.07142 -3.05844,0.23875 -1.66173,-0.93777 2.32829,-0.575083 1.95006,-4.407386 -0.68527,-3.510811 -1.37106,0.198371 -1.31105,2.707462 -0.0468,1.333807 1.25244,-1.839828 1.87148,1.213629 0.17226,1.516463 -0.9398,0.448181 -1.95824,2.573781 -0.19767,2.053471 0.79634,-0.0126 1.59267,-0.0253 2.38901,-0.0379 0.0101,-0.13907 0.0201,-0.27815 0.0302,-0.41722 z m -18.79902,-0.81281 c 1.40239,-0.24954 3.62516,-2.830896 2.4472,-3.719281 -0.77365,0.107063 -1.93416,-0.331294 -1.9756,0.791002 -0.813,1.871624 -3.82166,1.575599 -4.3593,-0.352039 -0.59497,-1.732684 -0.58981,-4.214146 1.06117,-5.36564 1.42834,-0.82525 3.17974,0.109408 3.68695,1.452886 1.30705,0.259195 2.68231,-0.0075 1.55998,-1.460038 -1.65278,-3.197673 -7.11433,-2.8906 -8.37398,0.516938 -0.74853,1.857753 -0.72052,4.101837 0.0961,5.933299 1.04904,2.129743 3.67978,2.932753 5.85752,2.202873 z m 11.01172,-0.013 c 3.26595,-1.050649 3.9643,-5.268907 2.72473,-8.08818 -1.43822,-3.638074 -7.21938,-3.708817 -8.89992,-0.25005 -0.92126,1.993387 -0.95512,4.578459 0.21518,6.483693 1.25105,2.003397 3.81548,2.511287 5.96001,1.854537 z m -2.40127,-1.659758 c -2.42093,-0.621225 -2.6363,-3.700559 -1.85424,-5.655549 0.77225,-2.422106 4.56073,-2.098398 5.09062,0.325875 0.50768,1.878482 0.31346,4.693472 -1.9228,5.304097 -0.42794,0.112 -0.88199,0.113768 -1.31358,0.02558 z"
         style="fill:#483737;fill-opacity:1;stroke-width:0.0981912" />
      <path
         inkscape:connector-curvature="0"
         id="path43008"
         d="m 527.53715,106.24784 h 15.59008 v 3.48869 h 8.28564 l -16.94776,9.78479 -16.37964,-9.45679 h 9.56069 z"
         style="fill:#483737;fill-opacity:1;stroke:none;stroke-width:0.921825px;stroke-linecap:butt;stroke-linejoin:miter;stroke-opacity:1" />
    </g>
  </g>
</svg>
